<svg width="500" height="500" viewBox="0 0 500 500" fill="none" xmlns="http://www.w3.org/2000/svg">
<rect x="15.5" y="15.5" width="469" height="469" rx="54.8125" fill="white" stroke="#0C6CBF" stroke-width="31"/>
<path d="M247.5 248L216.756 227H278.244L247.5 248Z" fill="#0068C6"/>
<path d="M247 248.5L216.25 268.852V228.148L247 248.5Z" fill="#0079E7"/>
<path d="M247.5 249L278.244 270H216.756L247.5 249Z" fill="#003D74"/>
<path d="M248 248.5L278.75 228.148V268.852L248 248.5Z" fill="#002F5A"/>
<path d="M355 228V267.136V270H279L355 228Z" fill="#003D74"/>
<path d="M279 269V229.864V227H355L279 269Z" fill="#0079E7"/>
<path d="M279 271H355L279 308.5V272V271Z" fill="#0079E7"/>
<path d="M355 271.5V335V337L279 309L355 271.5Z" fill="#0068C6"/>
<path d="M279 309.5L355 337.5L304 381L272.5 318.5L279 309.5Z" fill="#002F5A"/>
<path d="M217.5 318.5L272 319L303.5 381.5L217.5 318.5Z" fill="#0068C6"/>
<path d="M217 319L303 382H195L217 319Z" fill="#003D74"/>
<path d="M139 290H209V292L139 340V290Z" fill="#0079E7"/>
<path d="M139 340.5L209 292.5L216.5 318.5L194 382L139 340.5Z" fill="#0068C6"/>
<path d="M279 191L355 226H279V191Z" fill="#0068C6"/>
<path d="M354.5 162L355 225L279 190L354.5 162Z" fill="#003D74"/>
<path d="M308 118.5L354 161L279 189.5V187L308 118.5Z" fill="#0068C6"/>
<path d="M245 160.5L270.5 180.5H219.818L245 160.5Z" fill="#003D74"/>
<path d="M245 159.5L294.296 118.5H194.704L245 159.5Z" fill="#003D74"/>
<path d="M245.5 160L295.5 118.5H307L279 186L245.5 160Z" fill="#0079E7"/>
<path d="M194 118.5L244.5 160L218.5 181L194 118.5Z" fill="#0068C6"/>
<path d="M215 183.5L209 210H141L215 183.5Z" fill="#003D74"/>
<path d="M139 162.5L215 183L139 210V162.5Z" fill="#0068C6"/>
<path d="M193 118.5L217.5 180.5L214.5 182.5L139.5 162L193 118.5Z" fill="#0079E7"/>
</svg>
