<svg width="500" height="500" viewBox="0 0 500 500" fill="none" xmlns="http://www.w3.org/2000/svg">
<rect x="15.5" y="15.5" width="469" height="469" rx="54.8125" fill="white" stroke="#0C6CBF" stroke-width="31"/>
<path d="M100 307H153.757C154.553 307 155.316 307.316 155.879 307.879L203 355H103C101.343 355 100 353.657 100 352V307Z" fill="url(#paint0_linear_133_6)"/>
<path d="M400 307H346.243C345.447 307 344.684 307.316 344.121 307.879L297 355H397C398.657 355 400 353.657 400 352V307Z" fill="url(#paint1_linear_133_6)"/>
<path d="M151.235 284.521C151.734 284.182 152.322 284 152.925 284H347.075C347.678 284 348.266 284.182 348.765 284.521L370 299H346.252C345.451 299 344.683 299.32 344.119 299.89L296.789 347.708C296.604 347.895 296.5 348.148 296.5 348.411V355H204V348.414C204 348.149 203.895 347.895 203.707 347.707L155.879 299.879C155.316 299.316 154.553 299 153.757 299H130L151.235 284.521Z" fill="url(#paint2_linear_133_6)"/>
<path d="M100 229H152H348H400V299H371V293.523C371 293.195 370.84 292.889 370.571 292.702L348.772 277.537C348.27 277.187 347.672 277 347.059 277H152.941C152.328 277 151.73 277.187 151.228 277.537L129.429 292.702C129.16 292.889 129 293.195 129 293.523V299H100V229Z" fill="url(#paint3_linear_133_6)"/>
<path d="M100 300H153.757C154.553 300 155.316 300.316 155.879 300.879L202.707 347.707C202.895 347.895 203 348.149 203 348.414V354L155.879 306.879C155.316 306.316 154.553 306 153.757 306H100V300Z" fill="url(#paint4_linear_133_6)"/>
<path d="M400 300H346.243C345.447 300 344.684 300.316 344.121 300.879L297.293 347.707C297.105 347.895 297 348.149 297 348.414V354L344.121 306.879C344.684 306.316 345.447 306 346.243 306H400V300Z" fill="url(#paint5_linear_133_6)"/>
<path d="M151.225 278.542C151.73 278.189 152.33 278 152.946 278H347.054C347.67 278 348.27 278.189 348.775 278.542L369.573 293.101C369.841 293.289 370 293.594 370 293.921V298L348.765 283.521C348.266 283.182 347.678 283 347.075 283H152.925C152.322 283 151.734 283.182 151.235 283.521L130 298V293.921C130 293.594 130.159 293.289 130.427 293.101L151.225 278.542Z" fill="url(#paint6_linear_133_6)"/>
<path d="M100 147C100 145.343 101.343 144 103 144H397C398.657 144 400 145.343 400 147V214H100V147Z" fill="#006CD0"/>
<path d="M111 231.5H175C176.381 231.5 177.5 232.619 177.5 234V270C177.5 271.381 176.381 272.5 175 272.5H111C109.619 272.5 108.5 271.381 108.5 270V234C108.5 232.619 109.619 231.5 111 231.5Z" fill="#A9D6FF" stroke="#154C7F"/>
<rect x="322.5" y="231.5" width="69" height="41" rx="2.5" fill="#A9D6FF" stroke="#154C7F"/>
<path d="M187 231.5H226C227.381 231.5 228.5 232.619 228.5 234V270C228.5 271.381 227.381 272.5 226 272.5H187C185.619 272.5 184.5 271.381 184.5 270V234C184.5 232.619 185.619 231.5 187 231.5Z" fill="#A9D6FF" stroke="#154C7F"/>
<rect x="271.5" y="231.5" width="44" height="41" rx="2.5" fill="#A9D6FF" stroke="#154C7F"/>
<rect x="179.5" y="161.5" width="67" height="44" rx="2.5" fill="#A9D6FF" stroke="#154C7F"/>
<rect x="253.5" y="161.5" width="67" height="44" rx="2.5" fill="#A9D6FF" stroke="#154C7F"/>
<rect x="326.5" y="161.5" width="65" height="44" rx="2.5" fill="#A9D6FF" stroke="#154C7F"/>
<path d="M111 161.5H171C172.381 161.5 173.5 162.619 173.5 164V203C173.5 204.381 172.381 205.5 171 205.5H111C109.619 205.5 108.5 204.381 108.5 203V164C108.5 162.619 109.619 161.5 111 161.5Z" fill="#A9D6FF" stroke="#154C7F"/>
<path d="M234 233H267V276H234V233Z" fill="#015FB4"/>
<path d="M250.5 232.5V255V276M250.5 232.5H266C266.552 232.5 267 232.948 267 233.5V275.5C267 276.052 266.552 276.5 266 276.5H235C234.448 276.5 234 276.052 234 275.5V233.5C234 232.948 234.448 232.5 235 232.5H250.5Z" stroke="#154C7F"/>
<path d="M246 254.5H249" stroke="#154C7F" stroke-linecap="round"/>
<path d="M237 233.977H248C248.552 233.977 249 234.425 249 234.977V251.545C249 252.098 248.552 252.545 248 252.545H237C236.448 252.545 236 252.098 236 251.545V234.977C236 234.425 236.448 233.977 237 233.977Z" fill="#A9D6FF" stroke="#154C7F"/>
<path d="M252 251.545V234.977C252 234.425 252.448 233.977 253 233.977H264C264.552 233.977 265 234.425 265 234.977V251.545C265 252.098 264.552 252.545 264 252.545H253C252.448 252.545 252 252.098 252 251.545Z" fill="#A9D6FF" stroke="#154C7F"/>
<path d="M252 254.5H255" stroke="#154C7F" stroke-linecap="round"/>
<rect x="99" y="143" width="302" height="213" rx="4" stroke="#154C7F" stroke-width="2"/>
<rect x="92.5" y="215.5" width="316" height="12" fill="url(#paint7_linear_133_6)" stroke="#154C7F"/>
<rect x="98" y="213" width="302" height="1" fill="#154C7F"/>
<rect x="98" y="229" width="302" height="1" fill="#154C7F"/>
<rect x="98" y="214" width="2" height="1" fill="white"/>
<rect x="98" y="228" width="2" height="1" fill="white"/>
<rect x="400" y="214" width="2" height="1" fill="white"/>
<rect x="400" y="228" width="2" height="1" fill="white"/>
<defs>
<linearGradient id="paint0_linear_133_6" x1="100.687" y1="307.851" x2="203.719" y2="355.837" gradientUnits="userSpaceOnUse">
<stop stop-color="#0F7FE7"/>
<stop offset="1" stop-color="#41A4FF"/>
</linearGradient>
<linearGradient id="paint1_linear_133_6" x1="399.313" y1="307.851" x2="296.281" y2="355.837" gradientUnits="userSpaceOnUse">
<stop stop-color="#0F7FE7"/>
<stop offset="1" stop-color="#41A4FF"/>
</linearGradient>
<linearGradient id="paint2_linear_133_6" x1="131.6" y1="285.259" x2="321.522" y2="424.599" gradientUnits="userSpaceOnUse">
<stop stop-color="#0F7FE7"/>
<stop offset="1" stop-color="#41A4FF"/>
</linearGradient>
<linearGradient id="paint3_linear_133_6" x1="102" y1="230.241" x2="297.786" y2="412.359" gradientUnits="userSpaceOnUse">
<stop stop-color="#0F7FE7"/>
<stop offset="1" stop-color="#41A4FF"/>
</linearGradient>
<linearGradient id="paint4_linear_133_6" x1="151.5" y1="300" x2="151.5" y2="354" gradientUnits="userSpaceOnUse">
<stop stop-color="#005DB0"/>
<stop offset="1" stop-color="#006FD3"/>
</linearGradient>
<linearGradient id="paint5_linear_133_6" x1="348.5" y1="300" x2="348.5" y2="354" gradientUnits="userSpaceOnUse">
<stop stop-color="#005DB0"/>
<stop offset="1" stop-color="#006FD3"/>
</linearGradient>
<linearGradient id="paint6_linear_133_6" x1="250" y1="278" x2="250" y2="298" gradientUnits="userSpaceOnUse">
<stop stop-color="#005DB0"/>
<stop offset="1" stop-color="#006FD3"/>
</linearGradient>
<linearGradient id="paint7_linear_133_6" x1="250.5" y1="216" x2="250.5" y2="227" gradientUnits="userSpaceOnUse">
<stop stop-color="#005DB0"/>
<stop offset="1" stop-color="#006FD3"/>
</linearGradient>
</defs>
</svg>
