<svg width="500" height="500" viewBox="0 0 500 500" fill="none" xmlns="http://www.w3.org/2000/svg">
<rect x="15.5" y="15.5" width="469" height="469" rx="54.8125" fill="white" stroke="#0C6CBF" stroke-width="31"/>
<path d="M85 159H415V351H85V159Z" fill="url(#paint0_linear_128_2)"/>
<path d="M116.056 139.061C116.674 138.694 117.379 138.5 118.098 138.5H381.902C382.621 138.5 383.326 138.694 383.944 139.061L415 157.5H85L116.056 139.061Z" fill="url(#paint1_linear_128_2)"/>
<rect x="97" y="293" width="25" height="35" rx="1" fill="white"/>
<rect x="138" y="293" width="25" height="35" rx="1" fill="white"/>
<rect x="179" y="293" width="25" height="35" rx="1" fill="white"/>
<rect x="295" y="293" width="25" height="35" rx="1" fill="white"/>
<rect x="336" y="293" width="25" height="35" rx="1" fill="white"/>
<rect x="377" y="293" width="25" height="35" rx="1" fill="white"/>
<rect x="97" y="232" width="25" height="35" rx="1" fill="white"/>
<rect x="138" y="232" width="25" height="35" rx="1" fill="white"/>
<rect x="179" y="232" width="25" height="35" rx="1" fill="white"/>
<rect x="218" y="232" width="25" height="35" rx="1" fill="white"/>
<rect x="256" y="232" width="25" height="35" rx="1" fill="white"/>
<rect x="218" y="171" width="25" height="35" rx="1" fill="white"/>
<rect x="256" y="171" width="25" height="35" rx="1" fill="white"/>
<rect x="295" y="232" width="25" height="35" rx="1" fill="white"/>
<rect x="336" y="232" width="25" height="35" rx="1" fill="white"/>
<rect x="377" y="232" width="25" height="35" rx="1" fill="white"/>
<rect x="97" y="171" width="25" height="35" rx="1" fill="white"/>
<rect x="138" y="171" width="25" height="35" rx="1" fill="white"/>
<rect x="179" y="171" width="25" height="35" rx="1" fill="white"/>
<rect x="295" y="171" width="25" height="35" rx="1" fill="white"/>
<rect x="336" y="171" width="25" height="35" rx="1" fill="white"/>
<rect x="377" y="171" width="25" height="35" rx="1" fill="white"/>
<rect x="227" y="286" width="45" height="54" fill="#3572AA"/>
<path d="M249.5 286V312.5V339M249.5 286H271C271.552 286 272 286.448 272 287V338C272 338.552 271.552 339 271 339H228C227.448 339 227 338.552 227 338V287C227 286.448 227.448 286 228 286H249.5Z" stroke="white"/>
<path d="M243.5 313H248" stroke="white" stroke-linecap="round"/>
<path d="M230.5 287.5H246C246.552 287.5 247 287.948 247 288.5V309C247 309.552 246.552 310 246 310H230.5C229.948 310 229.5 309.552 229.5 309V288.5C229.5 287.948 229.948 287.5 230.5 287.5Z" fill="#41A4FF" stroke="white"/>
<path d="M252 309V288.5C252 287.948 252.448 287.5 253 287.5H268C268.552 287.5 269 287.948 269 288.5V309C269 309.552 268.552 310 268 310H253C252.448 310 252 309.552 252 309Z" fill="#41A4FF" stroke="white"/>
<path d="M251 313H255.5" stroke="white" stroke-linecap="round"/>
<rect x="204" y="345" width="91" height="6" fill="#B1D9FF"/>
<rect x="220" y="339" width="60" height="6" fill="#87C1F7"/>
<defs>
<linearGradient id="paint0_linear_128_2" x1="123.5" y1="204.5" x2="390.5" y2="267.5" gradientUnits="userSpaceOnUse">
<stop stop-color="#41A4FF"/>
<stop offset="1" stop-color="#74BCFF"/>
</linearGradient>
<linearGradient id="paint1_linear_128_2" x1="119" y1="145" x2="395.5" y2="153" gradientUnits="userSpaceOnUse">
<stop stop-color="#0068C6"/>
<stop offset="1" stop-color="#0086FF"/>
</linearGradient>
</defs>
</svg>
