<svg width="1408" height="82" viewBox="0 0 1408 82" fill="none" xmlns="http://www.w3.org/2000/svg">
<g filter="url(#filter0_d_313_211)">
<g opacity="0.8">
<path d="M4 13L70 73H4V13Z" fill="#D2D200"/>
<path d="M1404 73.0054L1338 13.0054H1404V73.0054Z" fill="#D2D200"/>
<path d="M104.242 71.5054L40.9089 14.5054H69.7577L133.091 71.5054H104.242Z" fill="#D2D200" stroke="#D2D200" stroke-width="3"/>
<path d="M163.242 71.5054L99.9089 14.5054H128.758L192.091 71.5054H163.242Z" fill="#D2D200" stroke="#D2D200" stroke-width="3"/>
<path d="M222.242 71.5054L158.909 14.5054H187.758L251.091 71.5054H222.242Z" fill="#D2D200" stroke="#D2D200" stroke-width="3"/>
<path d="M281.242 71.5054L217.909 14.5054H246.758L310.091 71.5054H281.242Z" fill="#D2D200" stroke="#D2D200" stroke-width="3"/>
<path d="M340.242 71.5054L276.909 14.5054H305.758L369.091 71.5054H340.242Z" fill="#D2D200" stroke="#D2D200" stroke-width="3"/>
<path d="M399.242 71.5054L335.909 14.5054H364.758L428.091 71.5054H399.242Z" fill="#D2D200" stroke="#D2D200" stroke-width="3"/>
<path d="M458.242 71.5054L394.909 14.5054H423.758L487.091 71.5054H458.242Z" fill="#D2D200" stroke="#D2D200" stroke-width="3"/>
<path d="M517.242 71.5054L453.909 14.5054H482.758L546.091 71.5054H517.242Z" fill="#D2D200" stroke="#D2D200" stroke-width="3"/>
<path d="M576.242 71.5054L512.909 14.5054H541.758L605.091 71.5054H576.242Z" fill="#D2D200" stroke="#D2D200" stroke-width="3"/>
<path d="M635.242 71.5054L571.909 14.5054H600.758L664.091 71.5054H635.242Z" fill="#D2D200" stroke="#D2D200" stroke-width="3"/>
<path d="M694.242 71.5054L630.909 14.5054H659.758L723.091 71.5054H694.242Z" fill="#D2D200" stroke="#D2D200" stroke-width="3"/>
<path d="M753.242 71.5054L689.909 14.5054H718.758L782.091 71.5054H753.242Z" fill="#D2D200" stroke="#D2D200" stroke-width="3"/>
<path d="M812.242 71.5054L748.909 14.5054H777.758L841.091 71.5054H812.242Z" fill="#D2D200" stroke="#D2D200" stroke-width="3"/>
<path d="M871.242 71.5054L807.909 14.5054H836.758L900.091 71.5054H871.242Z" fill="#D2D200" stroke="#D2D200" stroke-width="3"/>
<path d="M930.242 71.5054L866.909 14.5054H895.758L959.091 71.5054H930.242Z" fill="#D2D200" stroke="#D2D200" stroke-width="3"/>
<path d="M989.242 71.5054L925.909 14.5054H954.758L1018.09 71.5054H989.242Z" fill="#D2D200" stroke="#D2D200" stroke-width="3"/>
<path d="M1048.24 71.5054L984.909 14.5054H1013.76L1077.09 71.5054H1048.24Z" fill="#D2D200" stroke="#D2D200" stroke-width="3"/>
<path d="M1107.24 71.5054L1043.91 14.5054H1072.76L1136.09 71.5054H1107.24Z" fill="#D2D200" stroke="#D2D200" stroke-width="3"/>
<path d="M1166.24 71.5054L1102.91 14.5054H1131.76L1195.09 71.5054H1166.24Z" fill="#D2D200" stroke="#D2D200" stroke-width="3"/>
<path d="M1225.24 71.5054L1161.91 14.5054H1190.76L1254.09 71.5054H1225.24Z" fill="#D2D200" stroke="#D2D200" stroke-width="3"/>
<path d="M1284.24 71.5054L1220.91 14.5054H1249.76L1313.09 71.5054H1284.24Z" fill="#D2D200" stroke="#D2D200" stroke-width="3"/>
<path d="M1343.24 71.5054L1279.91 14.5054H1308.76L1372.09 71.5054H1343.24Z" fill="#D2D200" stroke="#D2D200" stroke-width="3"/>
</g>
<g opacity="0.9" filter="url(#filter1_f_313_211)">
<path d="M188.089 19.166H205.249C209.429 19.166 212.729 19.452 215.149 20.024C217.613 20.596 219.395 21.608 220.495 23.06C221.639 24.468 222.211 26.448 222.211 29V37.118C222.211 39.934 221.595 42.134 220.363 43.718C219.175 45.302 217.261 46.424 214.621 47.084C212.025 47.744 208.505 48.074 204.061 48.074H198.385V62H188.089V19.166ZM204.919 41.012C207.603 41.012 209.495 40.704 210.595 40.088C211.695 39.428 212.245 38.328 212.245 36.788V29.924C212.245 28.516 211.717 27.592 210.661 27.152C209.649 26.712 207.691 26.492 204.787 26.492H198.385V41.012H204.919ZM237.388 19.166H270.058V26.492H247.684V36.326H267.88V43.652H247.684V54.674H270.718V62H237.388V19.166ZM288.891 48.008C290.299 45.412 291.729 43.432 293.181 42.068C294.677 40.704 296.525 39.758 298.725 39.23V39.098C297.009 38.438 295.645 37.624 294.633 36.656C293.621 35.644 292.455 34.104 291.135 32.036L282.951 19.166H294.369L301.431 30.782C302.751 32.938 303.851 34.39 304.731 35.138C305.655 35.886 306.821 36.26 308.229 36.26V19.166H318.327V36.26C319.735 36.26 320.879 35.886 321.759 35.138C322.683 34.39 323.805 32.938 325.125 30.782L332.187 19.166H343.605L335.421 32.036C334.101 34.104 332.935 35.644 331.923 36.656C330.911 37.624 329.547 38.438 327.831 39.098V39.23C330.031 39.758 331.857 40.704 333.309 42.068C334.805 43.432 336.257 45.412 337.665 48.008L345.255 62H333.837L326.841 49.394C325.829 47.546 324.993 46.226 324.333 45.434C323.673 44.598 322.903 44.026 322.023 43.718C321.143 43.366 319.911 43.19 318.327 43.19V62H308.229V43.19C306.645 43.19 305.413 43.366 304.533 43.718C303.653 44.026 302.883 44.598 302.223 45.434C301.563 46.226 300.727 47.546 299.715 49.394L292.719 62H281.301L288.891 48.008ZM358.093 19.166H368.389V48.47L386.869 19.166H397.165V62H386.869V32.234L368.389 62H358.093V19.166ZM414.353 19.166H429.005L439.565 49.79L449.993 19.166H463.787V62H454.481V30.32H454.283L443.459 62H435.209L424.055 30.32H423.791V62H414.353V19.166ZM504.056 19.166H521.216C525.396 19.166 528.696 19.452 531.116 20.024C533.58 20.596 535.362 21.608 536.462 23.06C537.606 24.468 538.178 26.448 538.178 29V37.118C538.178 39.934 537.562 42.134 536.33 43.718C535.142 45.302 533.228 46.424 530.588 47.084C527.992 47.744 524.472 48.074 520.028 48.074H514.352V62H504.056V19.166ZM520.886 41.012C523.57 41.012 525.462 40.704 526.562 40.088C527.662 39.428 528.212 38.328 528.212 36.788V29.924C528.212 28.516 527.684 27.592 526.628 27.152C525.616 26.712 523.658 26.492 520.754 26.492H514.352V41.012H520.886ZM553.355 19.166H586.025V26.492H563.651V36.326H583.847V43.652H563.651V54.674H586.685V62H553.355V19.166ZM597.928 54.674H598.852C600.656 54.674 602.108 53.992 603.208 52.628C604.352 51.22 605.232 48.668 605.848 44.972C606.464 41.276 606.772 36.04 606.772 29.264V19.166H637.924V54.674H644.194V71.966H634.954V62H607.168V71.966H597.928V54.674ZM627.628 54.74V26.426H616.012V31.706C616.012 42.838 614.582 50.516 611.722 54.74H627.628ZM669.557 19.166H682.097L697.541 62H687.113L683.285 50.714H667.643L663.881 62H653.717L669.557 19.166ZM681.041 43.85L675.629 27.746H675.365L669.953 43.85H681.041ZM710.211 19.166H720.507V36.062C722.443 36.062 724.005 35.71 725.193 35.006C726.381 34.258 727.679 32.85 729.087 30.782L737.139 19.166H748.689L739.449 32.036C738.041 34.016 736.743 35.534 735.555 36.59C734.411 37.602 732.981 38.438 731.265 39.098V39.23C733.465 39.758 735.291 40.704 736.743 42.068C738.239 43.432 739.691 45.412 741.099 48.008L748.689 62H737.139L730.143 49.394C729.219 47.722 728.317 46.468 727.437 45.632C726.601 44.752 725.655 44.158 724.599 43.85C723.543 43.542 722.179 43.388 720.507 43.388V62H710.211V19.166ZM771.279 26.492H758.079V19.166H794.709V26.492H781.575V62H771.279V26.492ZM808.551 19.166H818.847V48.47L837.327 19.166H847.623V62H837.327V32.234L818.847 62H808.551V19.166ZM864.811 19.166H881.971C886.151 19.166 889.451 19.452 891.871 20.024C894.335 20.596 896.117 21.608 897.217 23.06C898.361 24.468 898.933 26.448 898.933 29V37.118C898.933 39.934 898.317 42.134 897.085 43.718C895.897 45.302 893.983 46.424 891.343 47.084C888.747 47.744 885.227 48.074 880.783 48.074H875.107V62H864.811V19.166ZM881.641 41.012C884.325 41.012 886.217 40.704 887.317 40.088C888.417 39.428 888.967 38.328 888.967 36.788V29.924C888.967 28.516 888.439 27.592 887.383 27.152C886.371 26.712 884.413 26.492 881.509 26.492H875.107V41.012H881.641ZM933.448 62.66C931.072 62.66 928.872 62.506 926.848 62.198C924.868 61.89 922.8 61.362 920.644 60.614C918.312 59.822 916.486 58.546 915.166 56.786C913.846 54.982 913.186 52.804 913.186 50.252V31.508C913.186 29.396 913.648 27.504 914.572 25.832C915.54 24.16 916.772 22.84 918.268 21.872C919.588 21.036 921.216 20.332 923.152 19.76C925.088 19.188 926.892 18.836 928.564 18.704C930.104 18.572 931.732 18.506 933.448 18.506C935.472 18.506 937.232 18.594 938.728 18.77C940.224 18.902 941.896 19.21 943.744 19.694C945.856 20.31 947.594 21.058 948.958 21.938C950.322 22.818 951.466 24.05 952.39 25.634C953.358 27.262 953.842 29.22 953.842 31.508V50.252C953.842 52.628 953.204 54.674 951.928 56.39C950.696 58.106 948.98 59.404 946.78 60.284C942.82 61.868 938.376 62.66 933.448 62.66ZM933.58 55.334C935.032 55.334 936.242 55.29 937.21 55.202C938.222 55.07 939.256 54.85 940.312 54.542C941.368 54.234 942.16 53.728 942.688 53.024C943.26 52.276 943.546 51.352 943.546 50.252V31.442C943.546 29.418 942.732 27.988 941.104 27.152C939.476 26.272 936.946 25.832 933.514 25.832C930.082 25.832 927.552 26.25 925.924 27.086C924.296 27.922 923.482 29.374 923.482 31.442V50.252C923.482 51.352 923.768 52.276 924.34 53.024C924.912 53.728 925.748 54.234 926.848 54.542C927.904 54.85 928.916 55.07 929.884 55.202C930.896 55.29 932.128 55.334 933.58 55.334ZM970.047 19.166H987.405C991.497 19.166 994.643 19.474 996.843 20.09C999.087 20.662 1000.67 21.608 1001.6 22.928C1002.52 24.204 1002.98 26.008 1002.98 28.34V33.62C1002.98 34.808 1002.5 35.93 1001.53 36.986C1000.61 38.042 999.505 38.768 998.229 39.164V39.494C999.901 39.67 1001.42 40.396 1002.78 41.672C1004.19 42.904 1004.9 44.29 1004.9 45.83V52.43C1004.9 55.906 1003.51 58.37 1000.74 59.822C997.965 61.274 993.675 62 987.867 62H970.047V19.166ZM987.405 36.59C989.033 36.59 990.243 36.458 991.035 36.194C991.827 35.93 992.355 35.512 992.619 34.94C992.927 34.324 993.081 33.444 993.081 32.3V30.188C993.081 29.176 992.949 28.428 992.685 27.944C992.421 27.416 991.871 27.042 991.035 26.822C990.243 26.602 988.967 26.492 987.207 26.492H980.343V36.59H987.405ZM987.669 54.674C990.177 54.674 991.959 54.388 993.015 53.816C994.071 53.244 994.599 52.32 994.599 51.044V47.612C994.599 46.028 994.181 44.906 993.345 44.246C992.553 43.586 991.123 43.256 989.055 43.256H980.343V54.674H987.669ZM1031.21 19.166H1043.75L1059.2 62H1048.77L1044.94 50.714H1029.3L1025.54 62H1015.37L1031.21 19.166ZM1042.7 43.85L1037.29 27.746H1037.02L1031.61 43.85H1042.7ZM1071.87 19.166H1082.16V36.326H1100.38V19.166H1110.68V62H1100.38V43.652H1082.16V62H1071.87V19.166ZM1127.81 19.166H1138.1V48.47L1156.58 19.166H1166.88V62H1156.58V32.234L1138.1 62H1127.81V19.166ZM1191.99 45.368C1189.21 45.016 1187.15 44.136 1185.78 42.728C1184.42 41.32 1183.74 39.318 1183.74 36.722V28.208C1183.74 24.952 1185.01 22.642 1187.56 21.278C1190.12 19.87 1194.25 19.166 1199.97 19.166H1218.91V62H1208.62V46.16H1202.55L1192.51 62H1180.77L1191.99 45.368ZM1208.62 39.362V26.492H1200.1C1197.82 26.492 1196.19 26.8 1195.22 27.416C1194.3 27.988 1193.83 29.066 1193.83 30.65V34.676C1193.83 36.524 1194.27 37.778 1195.15 38.438C1196.03 39.054 1197.68 39.362 1200.1 39.362H1208.62Z" fill="#464646"/>
<path d="M188.089 19.166V17.166H186.089V19.166H188.089ZM215.149 20.024L214.689 21.9704L214.697 21.9722L215.149 20.024ZM220.495 23.06L218.901 24.2677L218.921 24.2948L218.943 24.3212L220.495 23.06ZM220.363 43.718L218.784 42.4901L218.774 42.504L218.763 42.518L220.363 43.718ZM214.621 47.084L214.136 45.1437L214.128 45.1457L214.621 47.084ZM198.385 48.074V46.074H196.385V48.074H198.385ZM198.385 62V64H200.385V62H198.385ZM188.089 62H186.089V64H188.089V62ZM210.595 40.088L211.572 41.833L211.598 41.8184L211.624 41.803L210.595 40.088ZM210.661 27.152L209.864 28.9861L209.878 28.9923L209.892 28.9982L210.661 27.152ZM198.385 26.492V24.492H196.385V26.492H198.385ZM198.385 41.012H196.385V43.012H198.385V41.012ZM188.089 21.166H205.249V17.166H188.089V21.166ZM205.249 21.166C209.364 21.166 212.487 21.45 214.689 21.9704L215.609 18.0776C212.971 17.454 209.494 17.166 205.249 17.166V21.166ZM214.697 21.9722C216.881 22.4792 218.176 23.3105 218.901 24.2677L222.089 21.8523C220.614 19.9055 218.345 18.7128 215.601 18.0758L214.697 21.9722ZM218.943 24.3212C219.699 25.2523 220.211 26.7236 220.211 29H224.211C224.211 26.1724 223.579 23.6837 222.047 21.7988L218.943 24.3212ZM220.211 29V37.118H224.211V29H220.211ZM220.211 37.118C220.211 39.6649 219.652 41.3744 218.784 42.4901L221.942 44.9459C223.538 42.8936 224.211 40.2031 224.211 37.118H220.211ZM218.763 42.518C217.938 43.618 216.496 44.5537 214.136 45.1437L215.106 49.0243C218.026 48.2943 220.412 46.986 221.963 44.918L218.763 42.518ZM214.128 45.1457C211.764 45.7467 208.432 46.074 204.061 46.074V50.074C208.578 50.074 212.286 49.7413 215.114 49.0223L214.128 45.1457ZM204.061 46.074H198.385V50.074H204.061V46.074ZM196.385 48.074V62H200.385V48.074H196.385ZM198.385 60H188.089V64H198.385V60ZM190.089 62V19.166H186.089V62H190.089ZM204.919 43.012C207.64 43.012 209.989 42.7197 211.572 41.833L209.618 38.343C209.001 38.6883 207.566 39.012 204.919 39.012V43.012ZM211.624 41.803C213.456 40.704 214.245 38.8655 214.245 36.788H210.245C210.245 37.7905 209.934 38.152 209.566 38.373L211.624 41.803ZM214.245 36.788V29.924H210.245V36.788H214.245ZM214.245 29.924C214.245 28.9808 214.069 28.0292 213.585 27.1827C213.085 26.3075 212.334 25.6822 211.43 25.3058L209.892 28.9982C210.044 29.0618 210.085 29.1185 210.113 29.1673C210.157 29.2448 210.245 29.4592 210.245 29.924H214.245ZM211.458 25.3179C210.68 24.9793 209.704 24.7872 208.657 24.6695C207.578 24.5483 206.282 24.492 204.787 24.492V28.492C206.196 28.492 207.331 28.5457 208.21 28.6445C209.121 28.7468 209.63 28.8847 209.864 28.9861L211.458 25.3179ZM204.787 24.492H198.385V28.492H204.787V24.492ZM196.385 26.492V41.012H200.385V26.492H196.385ZM198.385 43.012H204.919V39.012H198.385V43.012ZM237.388 19.166V17.166H235.388V19.166H237.388ZM270.058 19.166H272.058V17.166H270.058V19.166ZM270.058 26.492V28.492H272.058V26.492H270.058ZM247.684 26.492V24.492H245.684V26.492H247.684ZM247.684 36.326H245.684V38.326H247.684V36.326ZM267.88 36.326H269.88V34.326H267.88V36.326ZM267.88 43.652V45.652H269.88V43.652H267.88ZM247.684 43.652V41.652H245.684V43.652H247.684ZM247.684 54.674H245.684V56.674H247.684V54.674ZM270.718 54.674H272.718V52.674H270.718V54.674ZM270.718 62V64H272.718V62H270.718ZM237.388 62H235.388V64H237.388V62ZM237.388 21.166H270.058V17.166H237.388V21.166ZM268.058 19.166V26.492H272.058V19.166H268.058ZM270.058 24.492H247.684V28.492H270.058V24.492ZM245.684 26.492V36.326H249.684V26.492H245.684ZM247.684 38.326H267.88V34.326H247.684V38.326ZM265.88 36.326V43.652H269.88V36.326H265.88ZM267.88 41.652H247.684V45.652H267.88V41.652ZM245.684 43.652V54.674H249.684V43.652H245.684ZM247.684 56.674H270.718V52.674H247.684V56.674ZM268.718 54.674V62H272.718V54.674H268.718ZM270.718 60H237.388V64H270.718V60ZM239.388 62V19.166H235.388V62H239.388ZM288.891 48.008L290.649 48.9616L290.649 48.9615L288.891 48.008ZM293.181 42.068L291.834 40.5901L291.823 40.6001L291.812 40.6103L293.181 42.068ZM298.725 39.23L299.192 41.1748L300.725 40.8068V39.23H298.725ZM298.725 39.098H300.725V37.7244L299.443 37.2313L298.725 39.098ZM294.633 36.656L293.219 38.0702L293.235 38.0859L293.251 38.1013L294.633 36.656ZM291.135 32.036L289.447 33.1092L289.449 33.1121L291.135 32.036ZM282.951 19.166V17.166H279.309L281.263 20.2392L282.951 19.166ZM294.369 19.166L296.078 18.127L295.494 17.166H294.369V19.166ZM301.431 30.782L299.722 31.821L299.725 31.8263L301.431 30.782ZM304.731 35.138L303.436 36.6619L303.454 36.6774L303.473 36.6925L304.731 35.138ZM308.229 36.26V38.26H310.229V36.26H308.229ZM308.229 19.166V17.166H306.229V19.166H308.229ZM318.327 19.166H320.327V17.166H318.327V19.166ZM318.327 36.26H316.327V38.26H318.327V36.26ZM321.759 35.138L320.501 33.5835L320.482 33.5986L320.464 33.6141L321.759 35.138ZM325.125 30.782L326.831 31.8263L326.834 31.821L325.125 30.782ZM332.187 19.166V17.166H331.062L330.478 18.127L332.187 19.166ZM343.605 19.166L345.293 20.2392L347.247 17.166H343.605V19.166ZM335.421 32.036L337.107 33.1121L337.109 33.1092L335.421 32.036ZM331.923 36.656L333.306 38.1013L333.322 38.0859L333.337 38.0702L331.923 36.656ZM327.831 39.098L327.113 37.2313L325.831 37.7244V39.098H327.831ZM327.831 39.23H325.831V40.8068L327.364 41.1748L327.831 39.23ZM333.309 42.068L331.94 43.5257L331.951 43.5359L331.962 43.5459L333.309 42.068ZM337.665 48.008L335.907 48.9615L335.907 48.9616L337.665 48.008ZM345.255 62V64H348.615L347.013 61.0464L345.255 62ZM333.837 62L332.088 62.9705L332.66 64H333.837V62ZM326.841 49.394L325.087 50.3546L325.092 50.3645L326.841 49.394ZM324.333 45.434L322.763 46.6733L322.78 46.694L322.797 46.7144L324.333 45.434ZM322.023 43.718L321.28 45.575L321.321 45.5912L321.362 45.6057L322.023 43.718ZM318.327 43.19V41.19H316.327V43.19H318.327ZM318.327 62V64H320.327V62H318.327ZM308.229 62H306.229V64H308.229V62ZM308.229 43.19H310.229V41.19H308.229V43.19ZM304.533 43.718L305.194 45.6057L305.235 45.5912L305.276 45.575L304.533 43.718ZM302.223 45.434L303.76 46.7144L303.776 46.694L303.793 46.6733L302.223 45.434ZM299.715 49.394L301.464 50.3645L301.469 50.3546L299.715 49.394ZM292.719 62V64H293.897L294.468 62.9705L292.719 62ZM281.301 62L279.543 61.0464L277.941 64H281.301V62ZM290.649 48.9615C292 46.4717 293.31 44.6912 294.55 43.5257L291.812 40.6103C290.148 42.1728 288.599 44.3523 287.133 47.0545L290.649 48.9615ZM294.529 43.5459C295.747 42.4351 297.281 41.6334 299.192 41.1748L298.258 37.2852C295.769 37.8826 293.607 38.9729 291.834 40.5901L294.529 43.5459ZM300.725 39.23V39.098H296.725V39.23H300.725ZM299.443 37.2313C297.901 36.6381 296.786 35.9481 296.016 35.2107L293.251 38.1013C294.504 39.2999 296.117 40.2379 298.007 40.9647L299.443 37.2313ZM296.047 35.2418C295.185 34.3796 294.11 32.9791 292.821 30.9599L289.449 33.1121C290.8 35.2289 292.057 36.9084 293.219 38.0702L296.047 35.2418ZM292.823 30.9628L284.639 18.0928L281.263 20.2392L289.447 33.1092L292.823 30.9628ZM282.951 21.166H294.369V17.166H282.951V21.166ZM292.66 20.205L299.722 31.821L303.14 29.743L296.078 18.127L292.66 20.205ZM299.725 31.8263C301.056 34.0004 302.295 35.6921 303.436 36.6619L306.026 33.6141C305.407 33.0879 304.446 31.8756 303.137 29.7377L299.725 31.8263ZM303.473 36.6925C304.816 37.7797 306.451 38.26 308.229 38.26V34.26C307.191 34.26 306.495 33.9923 305.989 33.5835L303.473 36.6925ZM310.229 36.26V19.166H306.229V36.26H310.229ZM308.229 21.166H318.327V17.166H308.229V21.166ZM316.327 19.166V36.26H320.327V19.166H316.327ZM318.327 38.26C320.102 38.26 321.738 37.7807 323.054 36.6619L320.464 33.6141C320.02 33.9913 319.369 34.26 318.327 34.26V38.26ZM323.018 36.6925C324.225 35.7147 325.495 34.0081 326.831 31.8263L323.419 29.7377C322.115 31.8679 321.141 33.0653 320.501 33.5835L323.018 36.6925ZM326.834 31.821L333.896 20.205L330.478 18.127L323.416 29.743L326.834 31.821ZM332.187 21.166H343.605V17.166H332.187V21.166ZM341.917 18.0928L333.733 30.9628L337.109 33.1092L345.293 20.2392L341.917 18.0928ZM333.735 30.9599C332.446 32.9791 331.371 34.3796 330.509 35.2418L333.337 38.0702C334.499 36.9084 335.756 35.2289 337.107 33.1121L333.735 30.9599ZM330.541 35.2107C329.77 35.9481 328.655 36.6381 327.113 37.2313L328.549 40.9647C330.439 40.2379 332.052 39.2999 333.306 38.1013L330.541 35.2107ZM325.831 39.098V39.23H329.831V39.098H325.831ZM327.364 41.1748C329.273 41.6328 330.774 42.4306 331.94 43.5257L334.678 40.6103C332.94 38.9774 330.789 37.8832 328.298 37.2852L327.364 41.1748ZM331.962 43.5459C333.235 44.7073 334.561 46.4802 335.907 48.9615L339.423 47.0545C337.953 44.3438 336.375 42.1567 334.657 40.5901L331.962 43.5459ZM335.907 48.9616L343.497 62.9536L347.013 61.0464L339.423 47.0544L335.907 48.9616ZM345.255 60H333.837V64H345.255V60ZM335.586 61.0295L328.59 48.4235L325.092 50.3645L332.088 62.9705L335.586 61.0295ZM328.595 48.4334C327.571 46.5637 326.66 45.1017 325.87 44.1536L322.797 46.7144C323.327 47.3503 324.087 48.5283 325.087 50.3546L328.595 48.4334ZM325.903 44.1947C325.042 43.1042 323.971 42.2809 322.684 41.8303L321.362 45.6057C321.835 45.7711 322.304 46.0918 322.763 46.6733L325.903 44.1947ZM322.766 41.861C321.543 41.3719 320.018 41.19 318.327 41.19V45.19C319.804 45.19 320.743 45.3601 321.28 45.575L322.766 41.861ZM316.327 43.19V62H320.327V43.19H316.327ZM318.327 60H308.229V64H318.327V60ZM310.229 62V43.19H306.229V62H310.229ZM308.229 41.19C306.538 41.19 305.013 41.3719 303.79 41.861L305.276 45.575C305.813 45.3601 306.752 45.19 308.229 45.19V41.19ZM303.872 41.8303C302.585 42.2809 301.514 43.1042 300.653 44.1947L303.793 46.6733C304.252 46.0918 304.721 45.7711 305.194 45.6057L303.872 41.8303ZM300.687 44.1536C299.897 45.1017 298.985 46.5637 297.961 48.4334L301.469 50.3546C302.469 48.5283 303.23 47.3503 303.76 46.7144L300.687 44.1536ZM297.966 48.4235L290.97 61.0295L294.468 62.9705L301.464 50.3645L297.966 48.4235ZM292.719 60H281.301V64H292.719V60ZM283.059 62.9536L290.649 48.9616L287.133 47.0544L279.543 61.0464L283.059 62.9536ZM358.093 19.166V17.166H356.093V19.166H358.093ZM368.389 19.166H370.389V17.166H368.389V19.166ZM368.389 48.47H366.389V55.3908L370.081 49.5368L368.389 48.47ZM386.869 19.166V17.166H385.766L385.177 18.0992L386.869 19.166ZM397.165 19.166H399.165V17.166H397.165V19.166ZM397.165 62V64H399.165V62H397.165ZM386.869 62H384.869V64H386.869V62ZM386.869 32.234H388.869V25.2208L385.17 31.1791L386.869 32.234ZM368.389 62V64H369.502L370.088 63.0549L368.389 62ZM358.093 62H356.093V64H358.093V62ZM358.093 21.166H368.389V17.166H358.093V21.166ZM366.389 19.166V48.47H370.389V19.166H366.389ZM370.081 49.5368L388.561 20.2328L385.177 18.0992L366.697 47.4032L370.081 49.5368ZM386.869 21.166H397.165V17.166H386.869V21.166ZM395.165 19.166V62H399.165V19.166H395.165ZM397.165 60H386.869V64H397.165V60ZM388.869 62V32.234H384.869V62H388.869ZM385.17 31.1791L366.69 60.9451L370.088 63.0549L388.568 33.2889L385.17 31.1791ZM368.389 60H358.093V64H368.389V60ZM360.093 62V19.166H356.093V62H360.093ZM414.353 19.166V17.166H412.353V19.166H414.353ZM429.005 19.166L430.896 18.514L430.431 17.166H429.005V19.166ZM439.565 49.79L437.674 50.442L439.577 55.9597L441.458 50.4347L439.565 49.79ZM449.993 19.166V17.166H448.561L448.1 18.5213L449.993 19.166ZM463.787 19.166H465.787V17.166H463.787V19.166ZM463.787 62V64H465.787V62H463.787ZM454.481 62H452.481V64H454.481V62ZM454.481 30.32H456.481V28.32H454.481V30.32ZM454.283 30.32V28.32H452.853L452.39 29.6734L454.283 30.32ZM443.459 62V64H444.889L445.352 62.6466L443.459 62ZM435.209 62L433.322 62.6642L433.793 64H435.209V62ZM424.055 30.32L425.941 29.6558L425.471 28.32H424.055V30.32ZM423.791 30.32V28.32H421.791V30.32H423.791ZM423.791 62V64H425.791V62H423.791ZM414.353 62H412.353V64H414.353V62ZM414.353 21.166H429.005V17.166H414.353V21.166ZM427.114 19.818L437.674 50.442L441.456 49.138L430.896 18.514L427.114 19.818ZM441.458 50.4347L451.886 19.8107L448.1 18.5213L437.672 49.1453L441.458 50.4347ZM449.993 21.166H463.787V17.166H449.993V21.166ZM461.787 19.166V62H465.787V19.166H461.787ZM463.787 60H454.481V64H463.787V60ZM456.481 62V30.32H452.481V62H456.481ZM454.481 28.32H454.283V32.32H454.481V28.32ZM452.39 29.6734L441.566 61.3534L445.352 62.6466L456.176 30.9666L452.39 29.6734ZM443.459 60H435.209V64H443.459V60ZM437.095 61.3358L425.941 29.6558L422.168 30.9842L433.322 62.6642L437.095 61.3358ZM424.055 28.32H423.791V32.32H424.055V28.32ZM421.791 30.32V62H425.791V30.32H421.791ZM423.791 60H414.353V64H423.791V60ZM416.353 62V19.166H412.353V62H416.353ZM504.056 19.166V17.166H502.056V19.166H504.056ZM531.116 20.024L530.656 21.9704L530.664 21.9722L531.116 20.024ZM536.462 23.06L534.868 24.2677L534.889 24.2948L534.91 24.3212L536.462 23.06ZM536.33 43.718L534.752 42.4901L534.741 42.504L534.73 42.518L536.33 43.718ZM530.588 47.084L530.103 45.1437L530.095 45.1457L530.588 47.084ZM514.352 48.074V46.074H512.352V48.074H514.352ZM514.352 62V64H516.352V62H514.352ZM504.056 62H502.056V64H504.056V62ZM526.562 40.088L527.539 41.833L527.566 41.8184L527.591 41.803L526.562 40.088ZM526.628 27.152L525.831 28.9861L525.845 28.9923L525.859 28.9982L526.628 27.152ZM514.352 26.492V24.492H512.352V26.492H514.352ZM514.352 41.012H512.352V43.012H514.352V41.012ZM504.056 21.166H521.216V17.166H504.056V21.166ZM521.216 21.166C525.331 21.166 528.454 21.45 530.656 21.9704L531.576 18.0776C528.938 17.454 525.462 17.166 521.216 17.166V21.166ZM530.664 21.9722C532.848 22.4792 534.143 23.3105 534.868 24.2677L538.056 21.8523C536.582 19.9055 534.312 18.7128 531.569 18.0758L530.664 21.9722ZM534.91 24.3212C535.667 25.2523 536.178 26.7236 536.178 29H540.178C540.178 26.1724 539.546 23.6837 538.014 21.7988L534.91 24.3212ZM536.178 29V37.118H540.178V29H536.178ZM536.178 37.118C536.178 39.6649 535.619 41.3744 534.752 42.4901L537.909 44.9459C539.505 42.8936 540.178 40.2031 540.178 37.118H536.178ZM534.73 42.518C533.905 43.618 532.463 44.5537 530.103 45.1437L531.073 49.0243C533.993 48.2943 536.379 46.986 537.93 44.918L534.73 42.518ZM530.095 45.1457C527.731 45.7467 524.4 46.074 520.028 46.074V50.074C524.545 50.074 528.253 49.7413 531.081 49.0223L530.095 45.1457ZM520.028 46.074H514.352V50.074H520.028V46.074ZM512.352 48.074V62H516.352V48.074H512.352ZM514.352 60H504.056V64H514.352V60ZM506.056 62V19.166H502.056V62H506.056ZM520.886 43.012C523.608 43.012 525.956 42.7197 527.539 41.833L525.585 38.343C524.968 38.6883 523.533 39.012 520.886 39.012V43.012ZM527.591 41.803C529.423 40.704 530.212 38.8655 530.212 36.788H526.212C526.212 37.7905 525.902 38.152 525.533 38.373L527.591 41.803ZM530.212 36.788V29.924H526.212V36.788H530.212ZM530.212 29.924C530.212 28.9808 530.036 28.0292 529.553 27.1827C529.053 26.3075 528.301 25.6822 527.397 25.3058L525.859 28.9982C526.012 29.0618 526.052 29.1185 526.08 29.1673C526.124 29.2448 526.212 29.4592 526.212 29.924H530.212ZM527.426 25.3179C526.647 24.9793 525.672 24.7872 524.624 24.6695C523.545 24.5483 522.249 24.492 520.754 24.492V28.492C522.163 28.492 523.298 28.5457 524.177 28.6445C525.088 28.7468 525.597 28.8847 525.831 28.9861L527.426 25.3179ZM520.754 24.492H514.352V28.492H520.754V24.492ZM512.352 26.492V41.012H516.352V26.492H512.352ZM514.352 43.012H520.886V39.012H514.352V43.012ZM553.355 19.166V17.166H551.355V19.166H553.355ZM586.025 19.166H588.025V17.166H586.025V19.166ZM586.025 26.492V28.492H588.025V26.492H586.025ZM563.651 26.492V24.492H561.651V26.492H563.651ZM563.651 36.326H561.651V38.326H563.651V36.326ZM583.847 36.326H585.847V34.326H583.847V36.326ZM583.847 43.652V45.652H585.847V43.652H583.847ZM563.651 43.652V41.652H561.651V43.652H563.651ZM563.651 54.674H561.651V56.674H563.651V54.674ZM586.685 54.674H588.685V52.674H586.685V54.674ZM586.685 62V64H588.685V62H586.685ZM553.355 62H551.355V64H553.355V62ZM553.355 21.166H586.025V17.166H553.355V21.166ZM584.025 19.166V26.492H588.025V19.166H584.025ZM586.025 24.492H563.651V28.492H586.025V24.492ZM561.651 26.492V36.326H565.651V26.492H561.651ZM563.651 38.326H583.847V34.326H563.651V38.326ZM581.847 36.326V43.652H585.847V36.326H581.847ZM583.847 41.652H563.651V45.652H583.847V41.652ZM561.651 43.652V54.674H565.651V43.652H561.651ZM563.651 56.674H586.685V52.674H563.651V56.674ZM584.685 54.674V62H588.685V54.674H584.685ZM586.685 60H553.355V64H586.685V60ZM555.355 62V19.166H551.355V62H555.355ZM597.928 54.674V52.674H595.928V54.674H597.928ZM603.208 52.628L601.656 51.3668L601.652 51.3725L603.208 52.628ZM605.848 44.972L603.876 44.6432L605.848 44.972ZM606.772 19.166V17.166H604.772V19.166H606.772ZM637.924 19.166H639.924V17.166H637.924V19.166ZM637.924 54.674H635.924V56.674H637.924V54.674ZM644.194 54.674H646.194V52.674H644.194V54.674ZM644.194 71.966V73.966H646.194V71.966H644.194ZM634.954 71.966H632.954V73.966H634.954V71.966ZM634.954 62H636.954V60H634.954V62ZM607.168 62V60H605.168V62H607.168ZM607.168 71.966V73.966H609.168V71.966H607.168ZM597.928 71.966H595.928V73.966H597.928V71.966ZM627.628 54.74V56.74H629.628V54.74H627.628ZM627.628 26.426H629.628V24.426H627.628V26.426ZM616.012 26.426V24.426H614.012V26.426H616.012ZM611.722 54.74L610.066 53.6187L607.953 56.74H611.722V54.74ZM597.928 56.674H598.852V52.674H597.928V56.674ZM598.852 56.674C601.24 56.674 603.273 55.7342 604.765 53.8835L601.652 51.3725C600.944 52.2498 600.072 52.674 598.852 52.674V56.674ZM604.761 53.8892C606.255 52.0501 607.197 49.0465 607.821 45.3008L603.876 44.6432C603.268 48.2895 602.45 50.3899 601.656 51.3668L604.761 53.8892ZM607.821 45.3008C608.464 41.4423 608.772 36.0773 608.772 29.264H604.772C604.772 36.0027 604.464 41.1097 603.876 44.6432L607.821 45.3008ZM608.772 29.264V19.166H604.772V29.264H608.772ZM606.772 21.166H637.924V17.166H606.772V21.166ZM635.924 19.166V54.674H639.924V19.166H635.924ZM637.924 56.674H644.194V52.674H637.924V56.674ZM642.194 54.674V71.966H646.194V54.674H642.194ZM644.194 69.966H634.954V73.966H644.194V69.966ZM636.954 71.966V62H632.954V71.966H636.954ZM634.954 60H607.168V64H634.954V60ZM605.168 62V71.966H609.168V62H605.168ZM607.168 69.966H597.928V73.966H607.168V69.966ZM599.928 71.966V54.674H595.928V71.966H599.928ZM629.628 54.74V26.426H625.628V54.74H629.628ZM627.628 24.426H616.012V28.426H627.628V24.426ZM614.012 26.426V31.706H618.012V26.426H614.012ZM614.012 31.706C614.012 42.8125 612.558 49.9388 610.066 53.6187L613.378 55.8613C616.607 51.0933 618.012 42.8635 618.012 31.706H614.012ZM611.722 56.74H627.628V52.74H611.722V56.74ZM669.557 19.166V17.166H668.164L667.681 18.4723L669.557 19.166ZM682.097 19.166L683.978 18.4876L683.502 17.166H682.097V19.166ZM697.541 62V64H700.388L699.422 61.3216L697.541 62ZM687.113 62L685.219 62.6424L685.679 64H687.113V62ZM683.285 50.714L685.179 50.0716L684.718 48.714H683.285V50.714ZM667.643 50.714V48.714H666.201L665.746 50.0815L667.643 50.714ZM663.881 62V64H665.322L665.778 62.6325L663.881 62ZM653.717 62L651.841 61.3063L650.845 64H653.717V62ZM681.041 43.85V45.85H683.823L682.937 43.2129L681.041 43.85ZM675.629 27.746L677.525 27.1089L677.067 25.746H675.629V27.746ZM675.365 27.746V25.746H673.927L673.469 27.1089L675.365 27.746ZM669.953 43.85L668.057 43.2129L667.171 45.85H669.953V43.85ZM669.557 21.166H682.097V17.166H669.557V21.166ZM680.215 19.8444L695.659 62.6784L699.422 61.3216L683.978 18.4876L680.215 19.8444ZM697.541 60H687.113V64H697.541V60ZM689.007 61.3576L685.179 50.0716L681.391 51.3564L685.219 62.6424L689.007 61.3576ZM683.285 48.714H667.643V52.714H683.285V48.714ZM665.746 50.0815L661.984 61.3675L665.778 62.6325L669.54 51.3465L665.746 50.0815ZM663.881 60H653.717V64H663.881V60ZM655.593 62.6937L671.433 19.8597L667.681 18.4723L651.841 61.3063L655.593 62.6937ZM682.937 43.2129L677.525 27.1089L673.733 28.3831L679.145 44.4871L682.937 43.2129ZM675.629 25.746H675.365V29.746H675.629V25.746ZM673.469 27.1089L668.057 43.2129L671.849 44.4871L677.261 28.3831L673.469 27.1089ZM669.953 45.85H681.041V41.85H669.953V45.85ZM710.211 19.166V17.166H708.211V19.166H710.211ZM720.507 19.166H722.507V17.166H720.507V19.166ZM720.507 36.062H718.507V38.062H720.507V36.062ZM725.193 35.006L726.212 36.7266L726.236 36.7128L726.258 36.6985L725.193 35.006ZM729.087 30.782L727.443 29.6426L727.438 29.6495L727.434 29.6564L729.087 30.782ZM737.139 19.166V17.166H736.092L735.495 18.0266L737.139 19.166ZM748.689 19.166L750.314 20.3324L752.587 17.166H748.689V19.166ZM739.449 32.036L737.824 30.8696L737.819 30.877L739.449 32.036ZM735.555 36.59L736.88 38.088L736.884 38.0848L735.555 36.59ZM731.265 39.098L730.547 37.2313L729.265 37.7244V39.098H731.265ZM731.265 39.23H729.265V40.8068L730.798 41.1748L731.265 39.23ZM736.743 42.068L735.374 43.5257L735.384 43.5359L735.395 43.5459L736.743 42.068ZM741.099 48.008L739.341 48.9615L739.341 48.9616L741.099 48.008ZM748.689 62V64H752.049L750.447 61.0464L748.689 62ZM737.139 62L735.39 62.9705L735.961 64H737.139V62ZM730.143 49.394L728.392 50.3614L728.394 50.3645L730.143 49.394ZM727.437 45.632L725.987 47.0095L726.022 47.0467L726.059 47.082L727.437 45.632ZM724.599 43.85L725.159 41.93L724.599 43.85ZM720.507 43.388V41.388H718.507V43.388H720.507ZM720.507 62V64H722.507V62H720.507ZM710.211 62H708.211V64H710.211V62ZM710.211 21.166H720.507V17.166H710.211V21.166ZM718.507 19.166V36.062H722.507V19.166H718.507ZM720.507 38.062C722.664 38.062 724.616 37.6727 726.212 36.7266L724.173 33.2854C723.394 33.7473 722.221 34.062 720.507 34.062V38.062ZM726.258 36.6985C727.795 35.7309 729.28 34.0527 730.74 31.9076L727.434 29.6564C726.078 31.6473 724.967 32.7851 724.127 33.3135L726.258 36.6985ZM730.731 31.9214L738.783 20.3054L735.495 18.0266L727.443 29.6426L730.731 31.9214ZM737.139 21.166H748.689V17.166H737.139V21.166ZM747.064 17.9996L737.824 30.8696L741.074 33.2024L750.314 20.3324L747.064 17.9996ZM737.819 30.877C736.458 32.7913 735.259 34.1773 734.226 35.0952L736.884 38.0848C738.227 36.8907 739.624 35.2407 741.079 33.195L737.819 30.877ZM734.23 35.092C733.297 35.9173 732.084 36.64 730.547 37.2313L731.983 40.9647C733.878 40.236 735.525 39.2867 736.88 38.088L734.23 35.092ZM729.265 39.098V39.23H733.265V39.098H729.265ZM730.798 41.1748C732.707 41.6328 734.208 42.4306 735.374 43.5257L738.112 40.6103C736.374 38.9774 734.223 37.8832 731.732 37.2852L730.798 41.1748ZM735.395 43.5459C736.669 44.7073 737.995 46.4802 739.341 48.9615L742.857 47.0545C741.387 44.3438 739.809 42.1567 738.09 40.5901L735.395 43.5459ZM739.341 48.9616L746.931 62.9536L750.447 61.0464L742.857 47.0544L739.341 48.9616ZM748.689 60H737.139V64H748.689V60ZM738.888 61.0295L731.892 48.4235L728.394 50.3645L735.39 62.9705L738.888 61.0295ZM731.893 48.4266C730.92 46.6659 729.902 45.2156 728.814 44.182L726.059 47.082C726.731 47.7204 727.517 48.7781 728.392 50.3614L731.893 48.4266ZM728.887 44.2545C727.833 43.1454 726.589 42.347 725.159 41.93L724.039 45.77C724.721 45.969 725.369 46.3586 725.987 47.0095L728.887 44.2545ZM725.159 41.93C723.853 41.549 722.281 41.388 720.507 41.388V45.388C722.077 45.388 723.233 45.535 724.039 45.77L725.159 41.93ZM718.507 43.388V62H722.507V43.388H718.507ZM720.507 60H710.211V64H720.507V60ZM712.211 62V19.166H708.211V62H712.211ZM771.279 26.492H773.279V24.492H771.279V26.492ZM758.079 26.492H756.079V28.492H758.079V26.492ZM758.079 19.166V17.166H756.079V19.166H758.079ZM794.709 19.166H796.709V17.166H794.709V19.166ZM794.709 26.492V28.492H796.709V26.492H794.709ZM781.575 26.492V24.492H779.575V26.492H781.575ZM781.575 62V64H783.575V62H781.575ZM771.279 62H769.279V64H771.279V62ZM771.279 24.492H758.079V28.492H771.279V24.492ZM760.079 26.492V19.166H756.079V26.492H760.079ZM758.079 21.166H794.709V17.166H758.079V21.166ZM792.709 19.166V26.492H796.709V19.166H792.709ZM794.709 24.492H781.575V28.492H794.709V24.492ZM779.575 26.492V62H783.575V26.492H779.575ZM781.575 60H771.279V64H781.575V60ZM773.279 62V26.492H769.279V62H773.279ZM808.551 19.166V17.166H806.551V19.166H808.551ZM818.847 19.166H820.847V17.166H818.847V19.166ZM818.847 48.47H816.847V55.3908L820.539 49.5368L818.847 48.47ZM837.327 19.166V17.166H836.224L835.635 18.0992L837.327 19.166ZM847.623 19.166H849.623V17.166H847.623V19.166ZM847.623 62V64H849.623V62H847.623ZM837.327 62H835.327V64H837.327V62ZM837.327 32.234H839.327V25.2208L835.628 31.1791L837.327 32.234ZM818.847 62V64H819.959L820.546 63.0549L818.847 62ZM808.551 62H806.551V64H808.551V62ZM808.551 21.166H818.847V17.166H808.551V21.166ZM816.847 19.166V48.47H820.847V19.166H816.847ZM820.539 49.5368L839.019 20.2328L835.635 18.0992L817.155 47.4032L820.539 49.5368ZM837.327 21.166H847.623V17.166H837.327V21.166ZM845.623 19.166V62H849.623V19.166H845.623ZM847.623 60H837.327V64H847.623V60ZM839.327 62V32.234H835.327V62H839.327ZM835.628 31.1791L817.148 60.9451L820.546 63.0549L839.026 33.2889L835.628 31.1791ZM818.847 60H808.551V64H818.847V60ZM810.551 62V19.166H806.551V62H810.551ZM864.811 19.166V17.166H862.811V19.166H864.811ZM891.871 20.024L891.411 21.9704L891.418 21.9722L891.871 20.024ZM897.217 23.06L895.623 24.2677L895.643 24.2948L895.664 24.3212L897.217 23.06ZM897.085 43.718L895.506 42.4901L895.495 42.504L895.485 42.518L897.085 43.718ZM891.343 47.084L890.858 45.1437L890.85 45.1457L891.343 47.084ZM875.107 48.074V46.074H873.107V48.074H875.107ZM875.107 62V64H877.107V62H875.107ZM864.811 62H862.811V64H864.811V62ZM887.317 40.088L888.294 41.833L888.32 41.8184L888.346 41.803L887.317 40.088ZM887.383 27.152L886.585 28.9861L886.599 28.9923L886.614 28.9982L887.383 27.152ZM875.107 26.492V24.492H873.107V26.492H875.107ZM875.107 41.012H873.107V43.012H875.107V41.012ZM864.811 21.166H881.971V17.166H864.811V21.166ZM881.971 21.166C886.085 21.166 889.209 21.45 891.411 21.9704L892.331 18.0776C889.693 17.454 886.216 17.166 881.971 17.166V21.166ZM891.418 21.9722C893.602 22.4792 894.897 23.3105 895.623 24.2677L898.811 21.8523C897.336 19.9055 895.067 18.7128 892.323 18.0758L891.418 21.9722ZM895.664 24.3212C896.421 25.2523 896.933 26.7236 896.933 29H900.933C900.933 26.1724 900.3 23.6837 898.769 21.7988L895.664 24.3212ZM896.933 29V37.118H900.933V29H896.933ZM896.933 37.118C896.933 39.6649 896.374 41.3744 895.506 42.4901L898.663 44.9459C900.26 42.8936 900.933 40.2031 900.933 37.118H896.933ZM895.485 42.518C894.66 43.618 893.218 44.5537 890.858 45.1437L891.828 49.0243C894.748 48.2943 897.134 46.986 898.685 44.918L895.485 42.518ZM890.85 45.1457C888.486 45.7467 885.154 46.074 880.783 46.074V50.074C885.299 50.074 889.008 49.7413 891.836 49.0223L890.85 45.1457ZM880.783 46.074H875.107V50.074H880.783V46.074ZM873.107 48.074V62H877.107V48.074H873.107ZM875.107 60H864.811V64H875.107V60ZM866.811 62V19.166H862.811V62H866.811ZM881.641 43.012C884.362 43.012 886.711 42.7197 888.294 41.833L886.34 38.343C885.723 38.6883 884.287 39.012 881.641 39.012V43.012ZM888.346 41.803C890.177 40.704 890.967 38.8655 890.967 36.788H886.967C886.967 37.7905 886.656 38.152 886.288 38.373L888.346 41.803ZM890.967 36.788V29.924H886.967V36.788H890.967ZM890.967 29.924C890.967 28.9808 890.791 28.0292 890.307 27.1827C889.807 26.3075 889.055 25.6822 888.152 25.3058L886.614 28.9982C886.766 29.0618 886.806 29.1185 886.834 29.1673C886.879 29.2448 886.967 29.4592 886.967 29.924H890.967ZM888.18 25.3179C887.402 24.9793 886.426 24.7872 885.379 24.6695C884.3 24.5483 883.004 24.492 881.509 24.492V28.492C882.918 28.492 884.053 28.5457 884.932 28.6445C885.842 28.7468 886.352 28.8847 886.585 28.9861L888.18 25.3179ZM881.509 24.492H875.107V28.492H881.509V24.492ZM873.107 26.492V41.012H877.107V26.492H873.107ZM875.107 43.012H881.641V39.012H875.107V43.012ZM926.848 62.198L926.54 64.1742L926.547 64.1752L926.848 62.198ZM920.644 60.614L921.299 58.7244L921.287 58.7202L920.644 60.614ZM915.166 56.786L913.552 57.967L913.559 57.9766L913.566 57.986L915.166 56.786ZM914.572 25.832L912.841 24.8299L912.831 24.8472L912.821 24.8646L914.572 25.832ZM918.268 21.872L917.198 20.1824L917.189 20.1876L917.181 20.1929L918.268 21.872ZM923.152 19.76L923.718 21.678L923.152 19.76ZM928.564 18.704L928.721 20.6978L928.734 20.6967L928.564 18.704ZM938.728 18.77L938.494 20.7563L938.523 20.7597L938.552 20.7623L938.728 18.77ZM943.744 19.694L944.304 17.774L944.277 17.7663L944.25 17.7593L943.744 19.694ZM948.958 21.938L950.042 20.2574V20.2574L948.958 21.938ZM952.39 25.634L950.662 26.6417L950.666 26.649L950.671 26.6562L952.39 25.634ZM951.928 56.39L950.323 55.1966L950.313 55.21L950.303 55.2236L951.928 56.39ZM946.78 60.284L946.037 58.427L946.78 60.284ZM937.21 55.202L937.391 57.1938L937.43 57.1903L937.468 57.1852L937.21 55.202ZM940.312 54.542L939.752 52.622L940.312 54.542ZM942.688 53.024L941.099 51.8091L941.093 51.8165L941.088 51.824L942.688 53.024ZM941.104 27.152L940.153 28.9114L940.171 28.9215L940.19 28.9311L941.104 27.152ZM924.34 53.024L922.751 54.2389L922.769 54.2623L922.787 54.2852L924.34 53.024ZM926.848 54.542L927.408 52.622L927.397 52.619L927.387 52.6161L926.848 54.542ZM929.884 55.202L929.613 57.1837L929.662 57.1903L929.71 57.1945L929.884 55.202ZM933.448 60.66C931.157 60.66 929.059 60.5114 927.148 60.2208L926.547 64.1752C928.685 64.5006 930.987 64.66 933.448 64.66V60.66ZM927.155 60.2218C925.308 59.9345 923.357 59.4385 921.299 58.7245L919.988 62.5035C922.242 63.2855 924.427 63.8455 926.54 64.1742L927.155 60.2218ZM921.287 58.7202C919.289 58.0417 917.815 56.9858 916.766 55.586L913.566 57.986C915.156 60.1062 917.334 61.6023 920 62.5078L921.287 58.7202ZM916.78 55.605C915.745 54.191 915.186 52.442 915.186 50.252H911.186C911.186 53.166 911.946 55.773 913.552 57.967L916.78 55.605ZM915.186 50.252V31.508H911.186V50.252H915.186ZM915.186 31.508C915.186 29.6979 915.579 28.1448 916.322 26.7994L912.821 24.8646C911.717 26.8632 911.186 29.0941 911.186 31.508H915.186ZM916.302 26.8341C917.126 25.412 918.145 24.3333 919.354 23.5511L917.181 20.1929C915.398 21.3467 913.953 22.908 912.841 24.8299L916.302 26.8341ZM919.338 23.5616C920.463 22.8487 921.911 22.212 923.718 21.678L922.585 17.842C920.52 18.452 918.712 19.2233 917.198 20.1824L919.338 23.5616ZM923.718 21.678C925.547 21.1378 927.212 20.8169 928.721 20.6978L928.406 16.7102C926.571 16.8551 924.628 17.2382 922.585 17.842L923.718 21.678ZM928.734 20.6967C930.212 20.5701 931.783 20.506 933.448 20.506V16.506C931.681 16.506 929.995 16.5739 928.393 16.7113L928.734 20.6967ZM933.448 20.506C935.418 20.506 937.097 20.5919 938.494 20.7563L938.961 16.7837C937.367 16.5961 935.525 16.506 933.448 16.506V20.506ZM938.552 20.7623C939.911 20.8822 941.47 21.1659 943.237 21.6287L944.25 17.7593C942.322 17.2541 940.536 16.9218 938.903 16.7777L938.552 20.7623ZM943.184 21.614C945.171 22.1937 946.718 22.8729 947.873 23.6186L950.042 20.2574C948.47 19.243 946.54 18.4263 944.304 17.774L943.184 21.614ZM947.873 23.6186C948.94 24.307 949.876 25.2939 950.662 26.6417L954.117 24.6263C953.055 22.8061 951.703 21.329 950.042 20.2574L947.873 23.6186ZM950.671 26.6562C951.42 27.9163 951.842 29.5048 951.842 31.508H955.842C955.842 28.9352 955.295 26.6077 954.109 24.6118L950.671 26.6562ZM951.842 31.508V50.252H955.842V31.508H951.842ZM951.842 50.252C951.842 52.2483 951.314 53.8638 950.323 55.1966L953.533 57.5834C955.094 55.4842 955.842 53.0077 955.842 50.252H951.842ZM950.303 55.2236C949.319 56.5935 947.927 57.6708 946.037 58.427L947.522 62.141C950.032 61.1372 952.072 59.6185 953.552 57.5564L950.303 55.2236ZM946.037 58.427C942.347 59.903 938.16 60.66 933.448 60.66V64.66C938.591 64.66 943.292 63.833 947.522 62.141L946.037 58.427ZM933.58 57.334C935.066 57.334 936.341 57.2892 937.391 57.1938L937.029 53.2102C936.142 53.2908 934.997 53.334 933.58 53.334V57.334ZM937.468 57.1852C938.59 57.0389 939.725 56.7966 940.872 56.462L939.752 52.622C938.787 52.9034 937.854 53.1011 936.951 53.2188L937.468 57.1852ZM940.872 56.462C942.238 56.0636 943.441 55.3528 944.288 54.224L941.088 51.824C940.878 52.1032 940.498 52.4044 939.752 52.622L940.872 56.462ZM944.276 54.2389C945.158 53.0856 945.546 51.7144 945.546 50.252H941.546C941.546 50.9896 941.361 51.4664 941.099 51.8091L944.276 54.2389ZM945.546 50.252V31.442H941.546V50.252H945.546ZM945.546 31.442C945.546 30.1622 945.287 28.9407 944.673 27.8621C944.053 26.7721 943.137 25.9478 942.017 25.3729L940.19 28.9311C940.698 29.1922 941.003 29.5009 941.197 29.8409C941.397 30.1923 941.546 30.6978 941.546 31.442H945.546ZM942.055 25.3926C939.979 24.2707 937.039 23.832 933.514 23.832V27.832C936.852 27.832 938.972 28.2733 940.153 28.9114L942.055 25.3926ZM933.514 23.832C929.996 23.832 927.073 24.2477 925.01 25.3069L926.837 28.8651C928.031 28.2523 930.167 27.832 933.514 27.832V23.832ZM925.01 25.3069C923.883 25.8859 922.966 26.7212 922.348 27.824C921.737 28.9129 921.482 30.1475 921.482 31.442H925.482C925.482 30.6685 925.633 30.1431 925.837 29.78C926.032 29.4308 926.337 29.1221 926.837 28.8651L925.01 25.3069ZM921.482 31.442V50.252H925.482V31.442H921.482ZM921.482 50.252C921.482 51.7144 921.869 53.0856 922.751 54.2389L925.928 51.8091C925.666 51.4664 925.482 50.9896 925.482 50.252H921.482ZM922.787 54.2852C923.681 55.3848 924.914 56.0775 926.308 56.4679L927.387 52.6161C926.581 52.3905 926.142 52.0712 925.892 51.7628L922.787 54.2852ZM926.288 56.462C927.427 56.7943 928.536 57.0368 929.613 57.1837L930.154 53.2203C929.295 53.1032 928.38 52.9057 927.408 52.622L926.288 56.462ZM929.71 57.1945C930.799 57.2891 932.092 57.334 933.58 57.334V53.334C932.163 53.334 930.993 53.2909 930.057 53.2095L929.71 57.1945ZM970.047 19.166V17.166H968.047V19.166H970.047ZM996.843 20.09L996.304 22.0159L996.326 22.0222L996.349 22.028L996.843 20.09ZM1001.6 22.928L999.957 24.0749L999.966 24.088L999.975 24.101L1001.6 22.928ZM1001.53 36.986L1000.05 35.6346L1000.04 35.6516L1000.02 35.669L1001.53 36.986ZM998.229 39.164L997.636 37.2539L996.229 37.6906V39.164H998.229ZM998.229 39.494H996.229V41.2945L998.02 41.483L998.229 39.494ZM1002.78 41.672L1001.42 43.1325L1001.44 43.1553L1001.47 43.1772L1002.78 41.672ZM1000.74 59.822L999.809 58.0503V58.0503L1000.74 59.822ZM970.047 62H968.047V64H970.047V62ZM991.035 36.194L990.403 34.2966L991.035 36.194ZM992.619 34.94L990.83 34.0456L990.816 34.0735L990.803 34.1019L992.619 34.94ZM992.685 27.944L990.896 28.8384L990.912 28.8704L990.929 28.9017L992.685 27.944ZM991.035 26.822L990.5 28.749L990.513 28.7527L990.526 28.7561L991.035 26.822ZM980.343 26.492V24.492H978.343V26.492H980.343ZM980.343 36.59H978.343V38.59H980.343V36.59ZM993.015 53.816L992.063 52.0574L993.015 53.816ZM993.345 44.246L992.065 45.7824L992.085 45.7994L992.106 45.8158L993.345 44.246ZM980.343 43.256V41.256H978.343V43.256H980.343ZM980.343 54.674H978.343V56.674H980.343V54.674ZM970.047 21.166H987.405V17.166H970.047V21.166ZM987.405 21.166C991.434 21.166 994.366 21.4733 996.304 22.0159L997.382 18.1641C994.92 17.4747 991.56 17.166 987.405 17.166V21.166ZM996.349 22.028C998.329 22.5326 999.406 23.288 999.957 24.0749L1003.23 21.7811C1001.94 19.928 999.846 18.7914 997.337 18.152L996.349 22.028ZM999.975 24.101C1000.56 24.9074 1000.98 26.2368 1000.98 28.34H1004.98C1004.98 25.7792 1004.48 23.5006 1003.22 21.755L999.975 24.101ZM1000.98 28.34V33.62H1004.98V28.34H1000.98ZM1000.98 33.62C1000.98 34.2087 1000.76 34.8673 1000.05 35.6346L1003 38.3374C1004.24 36.9927 1004.98 35.4073 1004.98 33.62H1000.98ZM1000.02 35.669C999.331 36.4614 998.541 36.9731 997.636 37.2539L998.822 41.0741C1000.47 40.5629 1001.88 39.6226 1003.03 38.303L1000.02 35.669ZM996.229 39.164V39.494H1000.23V39.164H996.229ZM998.02 41.483C999.211 41.6084 1000.33 42.1191 1001.42 43.1325L1004.15 40.2115C1002.5 38.6729 1000.59 37.7316 998.439 37.505L998.02 41.483ZM1001.47 43.1772C1002.54 44.1183 1002.9 44.9893 1002.9 45.83H1006.9C1006.9 43.5907 1005.84 41.6897 1004.1 40.1668L1001.47 43.1772ZM1002.9 45.83V52.43H1006.9V45.83H1002.9ZM1002.9 52.43C1002.9 53.9027 1002.6 55.0333 1002.11 55.9045C1001.63 56.764 1000.89 57.4838 999.809 58.0503L1001.67 61.5937C1003.36 60.7082 1004.7 59.47 1005.6 57.8655C1006.49 56.2727 1006.9 54.4333 1006.9 52.43H1002.9ZM999.809 58.0503C997.476 59.2727 993.584 60 987.867 60V64C993.766 64 998.455 63.2753 1001.67 61.5937L999.809 58.0503ZM987.867 60H970.047V64H987.867V60ZM972.047 62V19.166H968.047V62H972.047ZM987.405 38.59C989.084 38.59 990.559 38.4608 991.668 38.0914L990.403 34.2966C989.927 34.4552 988.982 34.59 987.405 34.59V38.59ZM991.668 38.0914C992.805 37.7121 993.871 36.9996 994.435 35.7781L990.803 34.1019C990.812 34.0834 990.819 34.0865 990.784 34.1144C990.74 34.1492 990.629 34.2212 990.403 34.2966L991.668 38.0914ZM994.408 35.8344C994.918 34.815 995.081 33.5742 995.081 32.3H991.081C991.081 33.3138 990.937 33.833 990.83 34.0456L994.408 35.8344ZM995.081 32.3V30.188H991.081V32.3H995.081ZM995.081 30.188C995.081 29.0779 994.949 27.9185 994.441 26.9863L990.929 28.9017C990.927 28.8965 990.971 28.9805 991.013 29.2156C991.053 29.4443 991.081 29.7627 991.081 30.188H995.081ZM994.474 27.0496C993.852 25.8056 992.673 25.185 991.544 24.8878L990.526 28.7561C990.787 28.8247 990.91 28.8939 990.95 28.9214C990.979 28.9409 990.936 28.9173 990.896 28.8384L994.474 27.0496ZM991.57 24.895C990.499 24.5974 988.991 24.492 987.207 24.492V28.492C988.944 28.492 989.987 28.6066 990.5 28.749L991.57 24.895ZM987.207 24.492H980.343V28.492H987.207V24.492ZM978.343 26.492V36.59H982.343V26.492H978.343ZM980.343 38.59H987.405V34.59H980.343V38.59ZM987.669 56.674C990.222 56.674 992.442 56.4011 993.968 55.5746L992.063 52.0574C991.476 52.3749 990.132 52.674 987.669 52.674V56.674ZM993.968 55.5746C994.78 55.1345 995.468 54.5119 995.94 53.6863C996.408 52.8671 996.599 51.9608 996.599 51.044H992.599C992.599 51.4032 992.527 51.5969 992.467 51.7017C992.41 51.8001 992.306 51.9254 992.063 52.0574L993.968 55.5746ZM996.599 51.044V47.612H992.599V51.044H996.599ZM996.599 47.612C996.599 45.7233 996.099 43.8721 994.584 42.6762L992.106 45.8158C992.263 45.9399 992.599 46.3327 992.599 47.612H996.599ZM994.626 42.7096C993.256 41.5681 991.193 41.256 989.055 41.256V45.256C991.053 45.256 991.851 45.6039 992.065 45.7824L994.626 42.7096ZM989.055 41.256H980.343V45.256H989.055V41.256ZM978.343 43.256V54.674H982.343V43.256H978.343ZM980.343 56.674H987.669V52.674H980.343V56.674ZM1031.21 19.166V17.166H1029.82L1029.34 18.4723L1031.21 19.166ZM1043.75 19.166L1045.64 18.4876L1045.16 17.166H1043.75V19.166ZM1059.2 62V64H1062.04L1061.08 61.3216L1059.2 62ZM1048.77 62L1046.88 62.6424L1047.34 64H1048.77V62ZM1044.94 50.714L1046.84 50.0716L1046.38 48.714H1044.94V50.714ZM1029.3 50.714V48.714H1027.86L1027.4 50.0815L1029.3 50.714ZM1025.54 62V64H1026.98L1027.44 62.6325L1025.54 62ZM1015.37 62L1013.5 61.3063L1012.5 64H1015.37V62ZM1042.7 43.85V45.85H1045.48L1044.59 43.2129L1042.7 43.85ZM1037.29 27.746L1039.18 27.1089L1038.72 25.746H1037.29V27.746ZM1037.02 27.746V25.746H1035.58L1035.13 27.1089L1037.02 27.746ZM1031.61 43.85L1029.71 43.2129L1028.83 45.85H1031.61V43.85ZM1031.21 21.166H1043.75V17.166H1031.21V21.166ZM1041.87 19.8444L1057.32 62.6784L1061.08 61.3216L1045.64 18.4876L1041.87 19.8444ZM1059.2 60H1048.77V64H1059.2V60ZM1050.66 61.3576L1046.84 50.0716L1043.05 51.3564L1046.88 62.6424L1050.66 61.3576ZM1044.94 48.714H1029.3V52.714H1044.94V48.714ZM1027.4 50.0815L1023.64 61.3675L1027.44 62.6325L1031.2 51.3465L1027.4 50.0815ZM1025.54 60H1015.37V64H1025.54V60ZM1017.25 62.6937L1033.09 19.8597L1029.34 18.4723L1013.5 61.3063L1017.25 62.6937ZM1044.59 43.2129L1039.18 27.1089L1035.39 28.3831L1040.8 44.4871L1044.59 43.2129ZM1037.29 25.746H1037.02V29.746H1037.29V25.746ZM1035.13 27.1089L1029.71 43.2129L1033.51 44.4871L1038.92 28.3831L1035.13 27.1089ZM1031.61 45.85H1042.7V41.85H1031.61V45.85ZM1071.87 19.166V17.166H1069.87V19.166H1071.87ZM1082.16 19.166H1084.16V17.166H1082.16V19.166ZM1082.16 36.326H1080.16V38.326H1082.16V36.326ZM1100.38 36.326V38.326H1102.38V36.326H1100.38ZM1100.38 19.166V17.166H1098.38V19.166H1100.38ZM1110.68 19.166H1112.68V17.166H1110.68V19.166ZM1110.68 62V64H1112.68V62H1110.68ZM1100.38 62H1098.38V64H1100.38V62ZM1100.38 43.652H1102.38V41.652H1100.38V43.652ZM1082.16 43.652V41.652H1080.16V43.652H1082.16ZM1082.16 62V64H1084.16V62H1082.16ZM1071.87 62H1069.87V64H1071.87V62ZM1071.87 21.166H1082.16V17.166H1071.87V21.166ZM1080.16 19.166V36.326H1084.16V19.166H1080.16ZM1082.16 38.326H1100.38V34.326H1082.16V38.326ZM1102.38 36.326V19.166H1098.38V36.326H1102.38ZM1100.38 21.166H1110.68V17.166H1100.38V21.166ZM1108.68 19.166V62H1112.68V19.166H1108.68ZM1110.68 60H1100.38V64H1110.68V60ZM1102.38 62V43.652H1098.38V62H1102.38ZM1100.38 41.652H1082.16V45.652H1100.38V41.652ZM1080.16 43.652V62H1084.16V43.652H1080.16ZM1082.16 60H1071.87V64H1082.16V60ZM1073.87 62V19.166H1069.87V62H1073.87ZM1127.81 19.166V17.166H1125.81V19.166H1127.81ZM1138.1 19.166H1140.1V17.166H1138.1V19.166ZM1138.1 48.47H1136.1V55.3908L1139.79 49.5368L1138.1 48.47ZM1156.58 19.166V17.166H1155.48L1154.89 18.0992L1156.58 19.166ZM1166.88 19.166H1168.88V17.166H1166.88V19.166ZM1166.88 62V64H1168.88V62H1166.88ZM1156.58 62H1154.58V64H1156.58V62ZM1156.58 32.234H1158.58V25.2208L1154.88 31.1791L1156.58 32.234ZM1138.1 62V64H1139.21L1139.8 63.0549L1138.1 62ZM1127.81 62H1125.81V64H1127.81V62ZM1127.81 21.166H1138.1V17.166H1127.81V21.166ZM1136.1 19.166V48.47H1140.1V19.166H1136.1ZM1139.79 49.5368L1158.27 20.2328L1154.89 18.0992L1136.41 47.4032L1139.79 49.5368ZM1156.58 21.166H1166.88V17.166H1156.58V21.166ZM1164.88 19.166V62H1168.88V19.166H1164.88ZM1166.88 60H1156.58V64H1166.88V60ZM1158.58 62V32.234H1154.58V62H1158.58ZM1154.88 31.1791L1136.4 60.9451L1139.8 63.0549L1158.28 33.2889L1154.88 31.1791ZM1138.1 60H1127.81V64H1138.1V60ZM1129.81 62V19.166H1125.81V62H1129.81ZM1191.99 45.368L1193.64 46.4865L1195.46 43.7932L1192.24 43.3839L1191.99 45.368ZM1185.78 42.728L1187.22 41.3364L1185.78 42.728ZM1187.56 21.278L1188.51 23.0419L1188.52 23.0356L1188.53 23.0292L1187.56 21.278ZM1218.91 19.166H1220.91V17.166H1218.91V19.166ZM1218.91 62V64H1220.91V62H1218.91ZM1208.62 62H1206.62V64H1208.62V62ZM1208.62 46.16H1210.62V44.16H1208.62V46.16ZM1202.55 46.16V44.16H1201.44L1200.86 45.0899L1202.55 46.16ZM1192.51 62V64H1193.61L1194.2 63.0701L1192.51 62ZM1180.77 62L1179.11 60.8815L1177 64H1180.77V62ZM1208.62 39.362V41.362H1210.62V39.362H1208.62ZM1208.62 26.492H1210.62V24.492H1208.62V26.492ZM1195.22 27.416L1196.27 29.1165L1196.28 29.11L1196.29 29.1033L1195.22 27.416ZM1195.15 38.438L1193.95 40.038L1193.98 40.0577L1194.01 40.0765L1195.15 38.438ZM1192.24 43.3839C1189.73 43.0654 1188.16 42.3044 1187.22 41.3364L1184.34 44.1196C1186.13 45.9676 1188.7 46.9666 1191.73 47.3521L1192.24 43.3839ZM1187.22 41.3364C1186.32 40.4099 1185.74 38.9721 1185.74 36.722H1181.74C1181.74 39.6639 1182.51 42.2301 1184.34 44.1196L1187.22 41.3364ZM1185.74 36.722V28.208H1181.74V36.722H1185.74ZM1185.74 28.208C1185.74 26.8401 1186 25.7978 1186.44 25.0005C1186.88 24.216 1187.54 23.5601 1188.51 23.0419L1186.62 19.5141C1185.04 20.3599 1183.78 21.541 1182.94 23.0665C1182.11 24.5792 1181.74 26.3199 1181.74 28.208H1185.74ZM1188.53 23.0292C1190.62 21.8773 1194.32 21.166 1199.97 21.166V17.166C1194.18 17.166 1189.61 17.8627 1186.6 19.5268L1188.53 23.0292ZM1199.97 21.166H1218.91V17.166H1199.97V21.166ZM1216.91 19.166V62H1220.91V19.166H1216.91ZM1218.91 60H1208.62V64H1218.91V60ZM1210.62 62V46.16H1206.62V62H1210.62ZM1208.62 44.16H1202.55V48.16H1208.62V44.16ZM1200.86 45.0899L1190.82 60.9299L1194.2 63.0701L1204.23 47.2301L1200.86 45.0899ZM1192.51 60H1180.77V64H1192.51V60ZM1182.42 63.1185L1193.64 46.4865L1190.33 44.2495L1179.11 60.8815L1182.42 63.1185ZM1210.62 39.362V26.492H1206.62V39.362H1210.62ZM1208.62 24.492H1200.1V28.492H1208.62V24.492ZM1200.1 24.492C1197.75 24.492 1195.62 24.7887 1194.15 25.7287L1196.29 29.1033C1196.75 28.8113 1197.88 28.492 1200.1 28.492V24.492ZM1194.17 25.7155C1192.41 26.8024 1191.83 28.7175 1191.83 30.65H1195.83C1195.83 29.4145 1196.18 29.1736 1196.27 29.1165L1194.17 25.7155ZM1191.83 30.65V34.676H1195.83V30.65H1191.83ZM1191.83 34.676C1191.83 36.7309 1192.31 38.8036 1193.95 40.038L1196.35 36.838C1196.24 36.7524 1195.83 36.3171 1195.83 34.676H1191.83ZM1194.01 40.0765C1194.77 40.6141 1195.72 40.9171 1196.68 41.097C1197.67 41.2811 1198.82 41.362 1200.1 41.362V37.362C1198.97 37.362 1198.08 37.2889 1197.42 37.165C1196.73 37.0369 1196.41 36.8779 1196.3 36.7995L1194.01 40.0765ZM1200.1 41.362H1208.62V37.362H1200.1V41.362Z" fill="#464646"/>
</g>
</g>
<defs>
<filter id="filter0_d_313_211" x="0" y="13" width="1408" height="68.0054" filterUnits="userSpaceOnUse" color-interpolation-filters="sRGB">
<feFlood flood-opacity="0" result="BackgroundImageFix"/>
<feColorMatrix in="SourceAlpha" type="matrix" values="0 0 0 0 0 0 0 0 0 0 0 0 0 0 0 0 0 0 127 0" result="hardAlpha"/>
<feOffset dy="4"/>
<feGaussianBlur stdDeviation="2"/>
<feComposite in2="hardAlpha" operator="out"/>
<feColorMatrix type="matrix" values="0 0 0 0 0 0 0 0 0 0 0 0 0 0 0 0 0 0 0.25 0"/>
<feBlend mode="normal" in2="BackgroundImageFix" result="effect1_dropShadow_313_211"/>
<feBlend mode="normal" in="SourceGraphic" in2="effect1_dropShadow_313_211" result="shape"/>
</filter>
<filter id="filter1_f_313_211" x="187.089" y="17.5061" width="1032.82" height="55.46" filterUnits="userSpaceOnUse" color-interpolation-filters="sRGB">
<feFlood flood-opacity="0" result="BackgroundImageFix"/>
<feBlend mode="normal" in="SourceGraphic" in2="BackgroundImageFix" result="shape"/>
<feGaussianBlur stdDeviation="0.5" result="effect1_foregroundBlur_313_211"/>
</filter>
</defs>
</svg>
