<svg width="420" height="372" viewBox="0 0 420 372" fill="none" xmlns="http://www.w3.org/2000/svg">
<path d="M396.403 1H26.4313C-0.108556 1 1.0067 12.3194 1.0067 36.725V325.095C1.0067 349.5 -0.108556 370.645 26.4313 370.645H370.705C397.245 370.645 418.76 375.299 418.76 350.893V36.725C418.76 12.3194 422.943 1 396.403 1Z" fill="white" stroke="#2FB464" stroke-opacity="0.25" stroke-width="2"/>
<path d="M60 119H58V120H60V119Z" fill="white"/>
<path d="M60 133H58V134H60V133Z" fill="white"/>
<path d="M362 119H360V120H362V119Z" fill="white"/>
<path d="M362 133H360V134H362V133Z" fill="white"/>
<path d="M74.6607 307.16C73.594 307.16 72.6074 306.987 71.7007 306.64C70.8074 306.28 70.0274 305.78 69.3607 305.14C68.7074 304.487 68.194 303.727 67.8207 302.86C67.4474 301.993 67.2607 301.04 67.2607 300C67.2607 298.96 67.4474 298.007 67.8207 297.14C68.194 296.273 68.714 295.52 69.3807 294.88C70.0474 294.227 70.8274 293.727 71.7207 293.38C72.6274 293.02 73.614 292.84 74.6807 292.84C75.7607 292.84 76.754 293.027 77.6607 293.4C78.5807 293.76 79.3607 294.3 80.0007 295.02L78.7007 296.28C78.1674 295.72 77.5674 295.307 76.9007 295.04C76.234 294.76 75.5207 294.62 74.7607 294.62C73.974 294.62 73.2407 294.753 72.5607 295.02C71.894 295.287 71.314 295.66 70.8207 296.14C70.3274 296.62 69.9407 297.193 69.6607 297.86C69.394 298.513 69.2607 299.227 69.2607 300C69.2607 300.773 69.394 301.493 69.6607 302.16C69.9407 302.813 70.3274 303.38 70.8207 303.86C71.314 304.34 71.894 304.713 72.5607 304.98C73.2407 305.247 73.974 305.38 74.7607 305.38C75.5207 305.38 76.234 305.247 76.9007 304.98C77.5674 304.7 78.1674 304.273 78.7007 303.7L80.0007 304.96C79.3607 305.68 78.5807 306.227 77.6607 306.6C76.754 306.973 75.754 307.16 74.6607 307.16ZM86.527 307.12C85.4603 307.12 84.5136 306.887 83.687 306.42C82.8603 305.953 82.207 305.313 81.727 304.5C81.247 303.673 81.007 302.74 81.007 301.7C81.007 300.647 81.247 299.713 81.727 298.9C82.207 298.087 82.8603 297.453 83.687 297C84.5136 296.533 85.4603 296.3 86.527 296.3C87.5803 296.3 88.5203 296.533 89.347 297C90.187 297.453 90.8403 298.087 91.307 298.9C91.787 299.7 92.027 300.633 92.027 301.7C92.027 302.753 91.787 303.687 91.307 304.5C90.8403 305.313 90.187 305.953 89.347 306.42C88.5203 306.887 87.5803 307.12 86.527 307.12ZM86.527 305.44C87.207 305.44 87.8136 305.287 88.347 304.98C88.8936 304.673 89.3203 304.24 89.627 303.68C89.9336 303.107 90.087 302.447 90.087 301.7C90.087 300.94 89.9336 300.287 89.627 299.74C89.3203 299.18 88.8936 298.747 88.347 298.44C87.8136 298.133 87.207 297.98 86.527 297.98C85.847 297.98 85.2403 298.133 84.707 298.44C84.1736 298.747 83.747 299.18 83.427 299.74C83.107 300.287 82.947 300.94 82.947 301.7C82.947 302.447 83.107 303.107 83.427 303.68C83.747 304.24 84.1736 304.673 84.707 304.98C85.2403 305.287 85.847 305.44 86.527 305.44ZM94.7995 307V296.4H96.7195V305.32H102.519V296.4H104.439V307H94.7995ZM104.299 309.46V306.9L104.779 307H102.519V305.32H106.119V309.46H104.299ZM108.608 307V296.4H110.528V304.12L117.028 296.4H118.768V307H116.848V299.28L110.368 307H108.608ZM128.995 307V304.76L128.895 304.34V300.52C128.895 299.707 128.655 299.08 128.175 298.64C127.708 298.187 127.001 297.96 126.055 297.96C125.428 297.96 124.815 298.067 124.215 298.28C123.615 298.48 123.108 298.753 122.695 299.1L121.895 297.66C122.441 297.22 123.095 296.887 123.855 296.66C124.628 296.42 125.435 296.3 126.275 296.3C127.728 296.3 128.848 296.653 129.635 297.36C130.421 298.067 130.815 299.147 130.815 300.6V307H128.995ZM125.515 307.12C124.728 307.12 124.035 306.987 123.435 306.72C122.848 306.453 122.395 306.087 122.075 305.62C121.755 305.14 121.595 304.6 121.595 304C121.595 303.427 121.728 302.907 121.995 302.44C122.275 301.973 122.721 301.6 123.335 301.32C123.961 301.04 124.801 300.9 125.855 300.9H129.215V302.28H125.935C124.975 302.28 124.328 302.44 123.995 302.76C123.661 303.08 123.495 303.467 123.495 303.92C123.495 304.44 123.701 304.86 124.115 305.18C124.528 305.487 125.101 305.64 125.835 305.64C126.555 305.64 127.181 305.48 127.715 305.16C128.261 304.84 128.655 304.373 128.895 303.76L129.275 305.08C129.021 305.707 128.575 306.207 127.935 306.58C127.295 306.94 126.488 307.12 125.515 307.12ZM132.512 306.98L132.632 305.36C132.725 305.373 132.812 305.387 132.892 305.4C132.972 305.413 133.045 305.42 133.112 305.42C133.539 305.42 133.872 305.273 134.112 304.98C134.365 304.687 134.552 304.3 134.672 303.82C134.792 303.327 134.879 302.773 134.932 302.16C134.985 301.547 135.025 300.933 135.052 300.32L135.232 296.4H143.372V307H141.452V297.52L141.912 298.08H136.472L136.912 297.5L136.772 300.44C136.732 301.373 136.659 302.247 136.552 303.06C136.445 303.873 136.279 304.587 136.052 305.2C135.839 305.813 135.539 306.293 135.152 306.64C134.779 306.987 134.292 307.16 133.692 307.16C133.519 307.16 133.332 307.14 133.132 307.1C132.945 307.073 132.739 307.033 132.512 306.98ZM151.985 300C153.331 300.013 154.358 300.32 155.065 300.92C155.771 301.52 156.125 302.367 156.125 303.46C156.125 304.607 155.738 305.493 154.965 306.12C154.191 306.733 153.098 307.033 151.685 307.02L147.085 307V296.4H149.005V299.98L151.985 300ZM151.525 305.56C152.391 305.573 153.045 305.4 153.485 305.04C153.938 304.68 154.165 304.147 154.165 303.44C154.165 302.747 153.945 302.24 153.505 301.92C153.065 301.6 152.405 301.433 151.525 301.42L149.005 301.38V305.54L151.525 305.56ZM158.589 307V296.4H160.509V300.9H166.549V296.4H168.469V307H166.549V302.56H160.509V307H158.589ZM176.742 307.12C175.675 307.12 174.728 306.887 173.902 306.42C173.075 305.953 172.422 305.313 171.942 304.5C171.462 303.673 171.222 302.74 171.222 301.7C171.222 300.647 171.462 299.713 171.942 298.9C172.422 298.087 173.075 297.453 173.902 297C174.728 296.533 175.675 296.3 176.742 296.3C177.795 296.3 178.735 296.533 179.562 297C180.402 297.453 181.055 298.087 181.522 298.9C182.002 299.7 182.242 300.633 182.242 301.7C182.242 302.753 182.002 303.687 181.522 304.5C181.055 305.313 180.402 305.953 179.562 306.42C178.735 306.887 177.795 307.12 176.742 307.12ZM176.742 305.44C177.422 305.44 178.028 305.287 178.562 304.98C179.108 304.673 179.535 304.24 179.842 303.68C180.148 303.107 180.302 302.447 180.302 301.7C180.302 300.94 180.148 300.287 179.842 299.74C179.535 299.18 179.108 298.747 178.562 298.44C178.028 298.133 177.422 297.98 176.742 297.98C176.062 297.98 175.455 298.133 174.922 298.44C174.388 298.747 173.962 299.18 173.642 299.74C173.322 300.287 173.162 300.94 173.162 301.7C173.162 302.447 173.322 303.107 173.642 303.68C173.962 304.24 174.388 304.673 174.922 304.98C175.455 305.287 176.062 305.44 176.742 305.44ZM184.49 302.34V300.68H189.87V302.34H184.49ZM194.193 302.34V300.92H200.133V302.34H194.193ZM195.613 296.28C196.707 296.28 197.687 296.513 198.553 296.98C199.42 297.447 200.1 298.087 200.593 298.9C201.087 299.713 201.333 300.647 201.333 301.7C201.333 302.74 201.087 303.673 200.593 304.5C200.1 305.327 199.42 305.973 198.553 306.44C197.687 306.907 196.707 307.14 195.613 307.14C194.707 307.14 193.867 306.993 193.093 306.7C192.333 306.407 191.693 305.98 191.173 305.42L192.293 304.3C192.733 304.727 193.22 305.047 193.753 305.26C194.3 305.46 194.893 305.56 195.533 305.56C196.307 305.56 196.993 305.4 197.593 305.08C198.193 304.747 198.667 304.287 199.013 303.7C199.373 303.113 199.553 302.447 199.553 301.7C199.553 300.953 199.373 300.293 199.013 299.72C198.667 299.133 198.193 298.673 197.593 298.34C196.993 298.007 196.307 297.84 195.533 297.84C194.893 297.84 194.3 297.947 193.753 298.16C193.22 298.373 192.733 298.693 192.293 299.12L191.173 298.02C191.693 297.447 192.333 297.013 193.093 296.72C193.867 296.427 194.707 296.28 195.613 296.28ZM211.737 307L207.637 301.84L209.217 300.88L213.997 307H211.737ZM204.057 307V296.4H205.977V307H204.057ZM205.397 302.52V300.88H208.897V302.52H205.397ZM209.377 301.92L207.597 301.68L211.657 296.4H213.717L209.377 301.92ZM220.199 307.12C219.132 307.12 218.185 306.887 217.359 306.42C216.532 305.953 215.879 305.313 215.399 304.5C214.919 303.673 214.679 302.74 214.679 301.7C214.679 300.647 214.919 299.713 215.399 298.9C215.879 298.087 216.532 297.453 217.359 297C218.185 296.533 219.132 296.3 220.199 296.3C221.252 296.3 222.192 296.533 223.019 297C223.859 297.453 224.512 298.087 224.979 298.9C225.459 299.7 225.699 300.633 225.699 301.7C225.699 302.753 225.459 303.687 224.979 304.5C224.512 305.313 223.859 305.953 223.019 306.42C222.192 306.887 221.252 307.12 220.199 307.12ZM220.199 305.44C220.879 305.44 221.485 305.287 222.019 304.98C222.565 304.673 222.992 304.24 223.299 303.68C223.605 303.107 223.759 302.447 223.759 301.7C223.759 300.94 223.605 300.287 223.299 299.74C222.992 299.18 222.565 298.747 222.019 298.44C221.485 298.133 220.879 297.98 220.199 297.98C219.519 297.98 218.912 298.133 218.379 298.44C217.845 298.747 217.419 299.18 217.099 299.74C216.779 300.287 216.619 300.94 216.619 301.7C216.619 302.447 216.779 303.107 217.099 303.68C217.419 304.24 217.845 304.673 218.379 304.98C218.912 305.287 219.519 305.44 220.199 305.44ZM228.471 307V296.4H230.391V300.9H236.431V296.4H238.351V307H236.431V302.56H230.391V307H228.471ZM246.625 307.12C245.558 307.12 244.611 306.887 243.785 306.42C242.958 305.953 242.305 305.313 241.825 304.5C241.345 303.673 241.105 302.74 241.105 301.7C241.105 300.647 241.345 299.713 241.825 298.9C242.305 298.087 242.958 297.453 243.785 297C244.611 296.533 245.558 296.3 246.625 296.3C247.678 296.3 248.618 296.533 249.445 297C250.285 297.453 250.938 298.087 251.405 298.9C251.885 299.7 252.125 300.633 252.125 301.7C252.125 302.753 251.885 303.687 251.405 304.5C250.938 305.313 250.285 305.953 249.445 306.42C248.618 306.887 247.678 307.12 246.625 307.12ZM246.625 305.44C247.305 305.44 247.911 305.287 248.445 304.98C248.991 304.673 249.418 304.24 249.725 303.68C250.031 303.107 250.185 302.447 250.185 301.7C250.185 300.94 250.031 300.287 249.725 299.74C249.418 299.18 248.991 298.747 248.445 298.44C247.911 298.133 247.305 297.98 246.625 297.98C245.945 297.98 245.338 298.133 244.805 298.44C244.271 298.747 243.845 299.18 243.525 299.74C243.205 300.287 243.045 300.94 243.045 301.7C243.045 302.447 243.205 303.107 243.525 303.68C243.845 304.24 244.271 304.673 244.805 304.98C245.338 305.287 245.945 305.44 246.625 305.44ZM254.897 307V296.4H256.877L261.437 304.24H260.637L265.317 296.4H267.117V307H265.377V298.56L265.697 298.74L261.417 305.8H260.577L256.277 298.6L256.657 298.52V307H254.897ZM270.854 307V296.4H272.774V304.12L279.274 296.4H281.014V307H279.094V299.28L272.614 307H270.854ZM291.421 302.66C290.861 302.927 290.281 303.14 289.681 303.3C289.094 303.447 288.488 303.52 287.861 303.52C286.581 303.52 285.568 303.22 284.821 302.62C284.088 302.02 283.721 301.093 283.721 299.84V296.4H285.641V299.72C285.641 300.48 285.874 301.04 286.341 301.4C286.821 301.76 287.461 301.94 288.261 301.94C288.768 301.94 289.288 301.873 289.821 301.74C290.368 301.607 290.901 301.42 291.421 301.18V302.66ZM291.281 307V296.4H293.201V307H291.281ZM301.648 307.12C300.515 307.12 299.515 306.887 298.648 306.42C297.795 305.953 297.128 305.313 296.648 304.5C296.182 303.687 295.948 302.753 295.948 301.7C295.948 300.647 296.175 299.713 296.628 298.9C297.095 298.087 297.728 297.453 298.528 297C299.342 296.533 300.255 296.3 301.268 296.3C302.295 296.3 303.202 296.527 303.988 296.98C304.775 297.433 305.388 298.073 305.828 298.9C306.282 299.713 306.508 300.667 306.508 301.76C306.508 301.84 306.502 301.933 306.488 302.04C306.488 302.147 306.482 302.247 306.468 302.34H297.448V300.96H305.468L304.688 301.44C304.702 300.76 304.562 300.153 304.268 299.62C303.975 299.087 303.568 298.673 303.048 298.38C302.542 298.073 301.948 297.92 301.268 297.92C300.602 297.92 300.008 298.073 299.488 298.38C298.968 298.673 298.562 299.093 298.268 299.64C297.975 300.173 297.828 300.787 297.828 301.48V301.8C297.828 302.507 297.988 303.14 298.308 303.7C298.642 304.247 299.102 304.673 299.688 304.98C300.275 305.287 300.948 305.44 301.708 305.44C302.335 305.44 302.902 305.333 303.408 305.12C303.928 304.907 304.382 304.587 304.768 304.16L305.828 305.4C305.348 305.96 304.748 306.387 304.028 306.68C303.322 306.973 302.528 307.12 301.648 307.12ZM314.107 307.12C313.027 307.12 312.06 306.887 311.207 306.42C310.367 305.953 309.707 305.313 309.227 304.5C308.747 303.687 308.507 302.753 308.507 301.7C308.507 300.647 308.747 299.713 309.227 298.9C309.707 298.087 310.367 297.453 311.207 297C312.06 296.533 313.027 296.3 314.107 296.3C315.067 296.3 315.92 296.493 316.667 296.88C317.427 297.253 318.014 297.813 318.427 298.56L316.967 299.5C316.62 298.98 316.194 298.6 315.687 298.36C315.194 298.107 314.66 297.98 314.087 297.98C313.394 297.98 312.774 298.133 312.227 298.44C311.68 298.747 311.247 299.18 310.927 299.74C310.607 300.287 310.447 300.94 310.447 301.7C310.447 302.46 310.607 303.12 310.927 303.68C311.247 304.24 311.68 304.673 312.227 304.98C312.774 305.287 313.394 305.44 314.087 305.44C314.66 305.44 315.194 305.32 315.687 305.08C316.194 304.827 316.62 304.44 316.967 303.92L318.427 304.84C318.014 305.573 317.427 306.14 316.667 306.54C315.92 306.927 315.067 307.12 314.107 307.12ZM328.593 307L324.493 301.84L326.073 300.88L330.853 307H328.593ZM320.913 307V296.4H322.833V307H320.913ZM322.253 302.52V300.88H325.753V302.52H322.253ZM326.233 301.92L324.453 301.68L328.513 296.4H330.573L326.233 301.92ZM332.866 307V296.4H334.786V304.12L341.286 296.4H343.026V307H341.106V299.28L334.626 307H332.866ZM346.753 307V296.4H348.673V304.12L355.173 296.4H356.913V307H354.993V299.28L348.513 307H346.753ZM351.713 295.02C350.739 295.02 349.973 294.787 349.413 294.32C348.866 293.84 348.586 293.153 348.573 292.26H349.873C349.886 292.767 350.053 293.167 350.373 293.46C350.706 293.753 351.146 293.9 351.693 293.9C352.239 293.9 352.679 293.753 353.013 293.46C353.346 293.167 353.519 292.767 353.533 292.26H354.873C354.859 293.153 354.573 293.84 354.013 294.32C353.453 294.787 352.686 295.02 351.713 295.02ZM98.7643 331V320.4H100.684V328.12L107.184 320.4H108.924V331H107.004V323.28L100.524 331H98.7643ZM112.651 331V320.4H114.571V324.9H120.611V320.4H122.531V331H120.611V326.56H114.571V331H112.651ZM130.884 331.12C129.804 331.12 128.838 330.887 127.984 330.42C127.144 329.953 126.484 329.313 126.004 328.5C125.524 327.687 125.284 326.753 125.284 325.7C125.284 324.647 125.524 323.713 126.004 322.9C126.484 322.087 127.144 321.453 127.984 321C128.838 320.533 129.804 320.3 130.884 320.3C131.844 320.3 132.698 320.493 133.444 320.88C134.204 321.253 134.791 321.813 135.204 322.56L133.744 323.5C133.398 322.98 132.971 322.6 132.464 322.36C131.971 322.107 131.438 321.98 130.864 321.98C130.171 321.98 129.551 322.133 129.004 322.44C128.458 322.747 128.024 323.18 127.704 323.74C127.384 324.287 127.224 324.94 127.224 325.7C127.224 326.46 127.384 327.12 127.704 327.68C128.024 328.24 128.458 328.673 129.004 328.98C129.551 329.287 130.171 329.44 130.864 329.44C131.438 329.44 131.971 329.32 132.464 329.08C132.971 328.827 133.398 328.44 133.744 327.92L135.204 328.84C134.791 329.573 134.204 330.14 133.444 330.54C132.698 330.927 131.844 331.12 130.884 331.12ZM139.653 331V321.58L140.133 322.08H135.773V320.4H145.453V322.08H141.113L141.573 321.58V331H139.653ZM147.417 331V320.4H149.337V328.12L155.837 320.4H157.577V331H155.657V323.28L149.177 331H147.417ZM163.403 331V321.58L163.883 322.08H159.523V320.4H169.203V322.08H164.863L165.323 321.58V331H163.403ZM171.707 335C171.2 335 170.707 334.913 170.227 334.74C169.747 334.58 169.333 334.34 168.987 334.02L169.807 332.58C170.073 332.833 170.367 333.027 170.687 333.16C171.007 333.293 171.347 333.36 171.707 333.36C172.173 333.36 172.56 333.24 172.867 333C173.173 332.76 173.46 332.333 173.727 331.72L174.387 330.26L174.587 330.02L178.747 320.4H180.627L175.487 332.06C175.18 332.807 174.833 333.393 174.447 333.82C174.073 334.247 173.66 334.547 173.207 334.72C172.753 334.907 172.253 335 171.707 335ZM174.227 331.34L169.387 320.4H171.387L175.507 329.84L174.227 331.34ZM184.692 331V321.58L185.172 322.08H180.812V320.4H190.492V322.08H186.152L186.612 321.58V331H184.692ZM194.876 334.88C194.116 333.667 193.529 332.267 193.116 330.68C192.702 329.08 192.496 327.36 192.496 325.52C192.496 323.68 192.702 321.96 193.116 320.36C193.529 318.747 194.116 317.347 194.876 316.16H196.696C195.896 317.573 195.309 319.053 194.936 320.6C194.562 322.133 194.376 323.773 194.376 325.52C194.376 327.267 194.562 328.913 194.936 330.46C195.309 331.993 195.896 333.467 196.696 334.88H194.876ZM203.734 331.12C202.667 331.12 201.721 330.887 200.894 330.42C200.067 329.953 199.414 329.313 198.934 328.5C198.454 327.673 198.214 326.74 198.214 325.7C198.214 324.647 198.454 323.713 198.934 322.9C199.414 322.087 200.067 321.453 200.894 321C201.721 320.533 202.667 320.3 203.734 320.3C204.787 320.3 205.727 320.533 206.554 321C207.394 321.453 208.047 322.087 208.514 322.9C208.994 323.7 209.234 324.633 209.234 325.7C209.234 326.753 208.994 327.687 208.514 328.5C208.047 329.313 207.394 329.953 206.554 330.42C205.727 330.887 204.787 331.12 203.734 331.12ZM203.734 329.44C204.414 329.44 205.021 329.287 205.554 328.98C206.101 328.673 206.527 328.24 206.834 327.68C207.141 327.107 207.294 326.447 207.294 325.7C207.294 324.94 207.141 324.287 206.834 323.74C206.527 323.18 206.101 322.747 205.554 322.44C205.021 322.133 204.414 321.98 203.734 321.98C203.054 321.98 202.447 322.133 201.914 322.44C201.381 322.747 200.954 323.18 200.634 323.74C200.314 324.287 200.154 324.94 200.154 325.7C200.154 326.447 200.314 327.107 200.634 327.68C200.954 328.24 201.381 328.673 201.914 328.98C202.447 329.287 203.054 329.44 203.734 329.44ZM216.906 331.16C216.026 331.16 215.246 331.02 214.566 330.74C213.9 330.46 213.326 330.047 212.846 329.5C212.366 328.94 212 328.24 211.746 327.4C211.506 326.547 211.386 325.547 211.386 324.4C211.386 323.493 211.466 322.68 211.626 321.96C211.786 321.24 212.013 320.6 212.306 320.04C212.613 319.48 212.986 318.993 213.426 318.58C213.88 318.167 214.386 317.827 214.946 317.56C215.52 317.28 216.146 317.067 216.826 316.92L221.666 315.84L221.946 317.62L217.486 318.58C217.22 318.633 216.9 318.713 216.526 318.82C216.153 318.927 215.773 319.093 215.386 319.32C215 319.533 214.64 319.833 214.306 320.22C213.973 320.607 213.706 321.113 213.506 321.74C213.306 322.353 213.206 323.113 213.206 324.02C213.206 324.273 213.213 324.467 213.226 324.6C213.24 324.733 213.253 324.867 213.266 325C213.293 325.133 213.313 325.333 213.326 325.6L212.526 324.78C212.74 324.047 213.08 323.407 213.546 322.86C214.013 322.313 214.573 321.893 215.226 321.6C215.893 321.293 216.62 321.14 217.406 321.14C218.393 321.14 219.266 321.353 220.026 321.78C220.8 322.207 221.406 322.793 221.846 323.54C222.286 324.287 222.506 325.14 222.506 326.1C222.506 327.073 222.273 327.947 221.806 328.72C221.353 329.48 220.706 330.08 219.866 330.52C219.026 330.947 218.04 331.16 216.906 331.16ZM217.086 329.56C217.766 329.56 218.366 329.413 218.886 329.12C219.406 328.813 219.813 328.407 220.106 327.9C220.4 327.38 220.546 326.8 220.546 326.16C220.546 325.52 220.4 324.953 220.106 324.46C219.813 323.967 219.406 323.58 218.886 323.3C218.366 323.007 217.753 322.86 217.046 322.86C216.38 322.86 215.78 323 215.246 323.28C214.713 323.547 214.3 323.927 214.006 324.42C213.713 324.9 213.566 325.46 213.566 326.1C213.566 326.74 213.713 327.327 214.006 327.86C214.313 328.38 214.726 328.793 215.246 329.1C215.78 329.407 216.393 329.56 217.086 329.56ZM232.289 329.32L231.849 329.82V320.4H233.769V329.82L233.289 329.32H238.889L238.429 329.82V320.4H240.349V331H225.249V320.4H227.169V329.82L226.709 329.32H232.289ZM240.109 333.26V330.5L240.569 331H238.329V329.32H241.909V333.26H240.109ZM248.797 331.12C247.663 331.12 246.663 330.887 245.797 330.42C244.943 329.953 244.277 329.313 243.797 328.5C243.33 327.687 243.097 326.753 243.097 325.7C243.097 324.647 243.323 323.713 243.777 322.9C244.243 322.087 244.877 321.453 245.677 321C246.49 320.533 247.403 320.3 248.417 320.3C249.443 320.3 250.35 320.527 251.137 320.98C251.923 321.433 252.537 322.073 252.977 322.9C253.43 323.713 253.657 324.667 253.657 325.76C253.657 325.84 253.65 325.933 253.637 326.04C253.637 326.147 253.63 326.247 253.617 326.34H244.597V324.96H252.617L251.837 325.44C251.85 324.76 251.71 324.153 251.417 323.62C251.123 323.087 250.717 322.673 250.197 322.38C249.69 322.073 249.097 321.92 248.417 321.92C247.75 321.92 247.157 322.073 246.637 322.38C246.117 322.673 245.71 323.093 245.417 323.64C245.123 324.173 244.977 324.787 244.977 325.48V325.8C244.977 326.507 245.137 327.14 245.457 327.7C245.79 328.247 246.25 328.673 246.837 328.98C247.423 329.287 248.097 329.44 248.857 329.44C249.483 329.44 250.05 329.333 250.557 329.12C251.077 328.907 251.53 328.587 251.917 328.16L252.977 329.4C252.497 329.96 251.897 330.387 251.177 330.68C250.47 330.973 249.677 331.12 248.797 331.12ZM268.922 331L265.542 325.84L267.122 324.88L271.202 331H268.922ZM263.342 326.52V324.88H266.782V326.52H263.342ZM267.302 325.92L265.482 325.68L268.862 320.4H270.922L267.302 325.92ZM257.022 331H254.742L258.802 324.88L260.382 325.84L257.022 331ZM263.922 331H262.002V320.4H263.922V331ZM262.582 326.52H259.162V324.88H262.582V326.52ZM258.642 325.92L255.022 320.4H257.062L260.442 325.68L258.642 325.92ZM273.315 331V320.4H275.235V328.12L281.735 320.4H283.475V331H281.555V323.28L275.075 331H273.315ZM289.302 331V321.58L289.782 322.08H285.422V320.4H295.102V322.08H290.762L291.222 321.58V331H289.302ZM297.065 331V320.4H298.985V328.12L305.485 320.4H307.225V331H305.305V323.28L298.825 331H297.065ZM317.732 331V327.28L318.032 327.64H314.652C313.238 327.64 312.132 327.34 311.332 326.74C310.545 326.14 310.152 325.267 310.152 324.12C310.152 322.893 310.572 321.967 311.412 321.34C312.265 320.713 313.398 320.4 314.812 320.4H319.452V331H317.732ZM310.052 331L312.932 326.94H314.912L312.112 331H310.052ZM317.732 326.68V321.54L318.032 322.08H314.872C313.992 322.08 313.312 322.247 312.832 322.58C312.352 322.9 312.112 323.433 312.112 324.18C312.112 325.567 313.005 326.26 314.792 326.26H318.032L317.732 326.68ZM323.798 334.88H321.978C322.791 333.467 323.385 331.993 323.758 330.46C324.131 328.913 324.318 327.267 324.318 325.52C324.318 323.773 324.131 322.133 323.758 320.6C323.385 319.053 322.791 317.573 321.978 316.16H323.798C324.585 317.347 325.178 318.747 325.578 320.36C325.991 321.96 326.198 323.68 326.198 325.52C326.198 327.36 325.991 329.08 325.578 330.68C325.178 332.267 324.585 333.667 323.798 334.88Z" fill="black" fill-opacity="0.65"/>
<path d="M47 69.5482H377.776V262H47V69.5482Z" fill="url(#paint0_linear_2_186)"/>
<path d="M78.1291 49.5623C78.7485 49.1945 79.4552 49 80.1759 49H344.601C345.321 49 346.028 49.1945 346.647 49.5623L377.776 68.0447H47L78.1291 49.5623Z" fill="url(#paint1_linear_2_186)"/>
<path d="M83.0847 203.864H60.0306C59.477 203.864 59.0283 204.312 59.0283 204.866V237.944C59.0283 238.497 59.477 238.946 60.0306 238.946H83.0847C83.6383 238.946 84.0871 238.497 84.0871 237.944V204.866C84.0871 204.312 83.6383 203.864 83.0847 203.864Z" fill="#2FB464" fill-opacity="0.58"/>
<path d="M124.181 203.864H101.127C100.573 203.864 100.125 204.312 100.125 204.866V237.944C100.125 238.497 100.573 238.946 101.127 238.946H124.181C124.735 238.946 125.184 238.497 125.184 237.944V204.866C125.184 204.312 124.735 203.864 124.181 203.864Z" fill="#2FB464" fill-opacity="0.58"/>
<path d="M165.278 203.864H142.224C141.67 203.864 141.221 204.312 141.221 204.866V237.944C141.221 238.497 141.67 238.946 142.224 238.946H165.278C165.831 238.946 166.28 238.497 166.28 237.944V204.866C166.28 204.312 165.831 203.864 165.278 203.864Z" fill="#2FB464" fill-opacity="0.58"/>
<path d="M281.551 203.864H258.496C257.943 203.864 257.494 204.312 257.494 204.866V237.944C257.494 238.497 257.943 238.946 258.496 238.946H281.551C282.104 238.946 282.553 238.497 282.553 237.944V204.866C282.553 204.312 282.104 203.864 281.551 203.864Z" fill="#2FB464" fill-opacity="0.58"/>
<path d="M322.647 203.864H299.593C299.039 203.864 298.591 204.312 298.591 204.866V237.944C298.591 238.497 299.039 238.946 299.593 238.946H322.647C323.201 238.946 323.649 238.497 323.649 237.944V204.866C323.649 204.312 323.201 203.864 322.647 203.864Z" fill="#2FB464" fill-opacity="0.58"/>
<path d="M363.744 203.864H340.689C340.136 203.864 339.687 204.312 339.687 204.866V237.944C339.687 238.497 340.136 238.946 340.689 238.946H363.744C364.297 238.946 364.746 238.497 364.746 237.944V204.866C364.746 204.312 364.297 203.864 363.744 203.864Z" fill="#2FB464" fill-opacity="0.58"/>
<path d="M83.0847 142.72H60.0306C59.477 142.72 59.0283 143.169 59.0283 143.722V176.8C59.0283 177.354 59.477 177.802 60.0306 177.802H83.0847C83.6383 177.802 84.0871 177.354 84.0871 176.8V143.722C84.0871 143.169 83.6383 142.72 83.0847 142.72Z" fill="#2FB464" fill-opacity="0.58"/>
<path d="M124.181 142.72H101.127C100.573 142.72 100.125 143.169 100.125 143.722V176.8C100.125 177.354 100.573 177.802 101.127 177.802H124.181C124.735 177.802 125.184 177.354 125.184 176.8V143.722C125.184 143.169 124.735 142.72 124.181 142.72Z" fill="#2FB464" fill-opacity="0.58"/>
<path d="M165.278 142.72H142.224C141.67 142.72 141.221 143.169 141.221 143.722V176.8C141.221 177.354 141.67 177.802 142.224 177.802H165.278C165.831 177.802 166.28 177.354 166.28 176.8V143.722C166.28 143.169 165.831 142.72 165.278 142.72Z" fill="#2FB464" fill-opacity="0.58"/>
<path d="M204.369 142.72H181.315C180.762 142.72 180.313 143.169 180.313 143.722V176.8C180.313 177.354 180.762 177.802 181.315 177.802H204.369C204.923 177.802 205.372 177.354 205.372 176.8V143.722C205.372 143.169 204.923 142.72 204.369 142.72Z" fill="#2FB464" fill-opacity="0.58"/>
<path d="M242.459 142.72H219.405C218.851 142.72 218.402 143.169 218.402 143.722V176.8C218.402 177.354 218.851 177.802 219.405 177.802H242.459C243.012 177.802 243.461 177.354 243.461 176.8V143.722C243.461 143.169 243.012 142.72 242.459 142.72Z" fill="#2FB464" fill-opacity="0.58"/>
<path d="M204.369 81.5765H181.315C180.762 81.5765 180.313 82.0252 180.313 82.5788V115.656C180.313 116.21 180.762 116.659 181.315 116.659H204.369C204.923 116.659 205.372 116.21 205.372 115.656V82.5788C205.372 82.0252 204.923 81.5765 204.369 81.5765Z" fill="#2FB464" fill-opacity="0.58"/>
<path d="M242.459 81.5765H219.405C218.851 81.5765 218.402 82.0252 218.402 82.5788V115.656C218.402 116.21 218.851 116.659 219.405 116.659H242.459C243.012 116.659 243.461 116.21 243.461 115.656V82.5788C243.461 82.0252 243.012 81.5765 242.459 81.5765Z" fill="#2FB464" fill-opacity="0.58"/>
<path d="M281.551 142.72H258.496C257.943 142.72 257.494 143.169 257.494 143.722V176.8C257.494 177.354 257.943 177.802 258.496 177.802H281.551C282.104 177.802 282.553 177.354 282.553 176.8V143.722C282.553 143.169 282.104 142.72 281.551 142.72Z" fill="#2FB464" fill-opacity="0.58"/>
<path d="M322.647 142.72H299.593C299.039 142.72 298.591 143.169 298.591 143.722V176.8C298.591 177.354 299.039 177.802 299.593 177.802H322.647C323.201 177.802 323.649 177.354 323.649 176.8V143.722C323.649 143.169 323.201 142.72 322.647 142.72Z" fill="#2FB464" fill-opacity="0.58"/>
<path d="M363.744 142.72H340.689C340.136 142.72 339.687 143.169 339.687 143.722V176.8C339.687 177.354 340.136 177.802 340.689 177.802H363.744C364.297 177.802 364.746 177.354 364.746 176.8V143.722C364.746 143.169 364.297 142.72 363.744 142.72Z" fill="#2FB464" fill-opacity="0.58"/>
<path d="M83.0847 81.5765H60.0306C59.477 81.5765 59.0283 82.0252 59.0283 82.5788V115.656C59.0283 116.21 59.477 116.659 60.0306 116.659H83.0847C83.6383 116.659 84.0871 116.21 84.0871 115.656V82.5788C84.0871 82.0252 83.6383 81.5765 83.0847 81.5765Z" fill="#2FB464" fill-opacity="0.58"/>
<path d="M124.181 81.5765H101.127C100.573 81.5765 100.125 82.0252 100.125 82.5788V115.656C100.125 116.21 100.573 116.659 101.127 116.659H124.181C124.735 116.659 125.184 116.21 125.184 115.656V82.5788C125.184 82.0252 124.735 81.5765 124.181 81.5765Z" fill="#2FB464" fill-opacity="0.58"/>
<path d="M165.278 81.5765H142.224C141.67 81.5765 141.221 82.0252 141.221 82.5788V115.656C141.221 116.21 141.67 116.659 142.224 116.659H165.278C165.831 116.659 166.28 116.21 166.28 115.656V82.5788C166.28 82.0252 165.831 81.5765 165.278 81.5765Z" fill="#2FB464" fill-opacity="0.58"/>
<path d="M281.551 81.5765H258.496C257.943 81.5765 257.494 82.0252 257.494 82.5788V115.656C257.494 116.21 257.943 116.659 258.496 116.659H281.551C282.104 116.659 282.553 116.21 282.553 115.656V82.5788C282.553 82.0252 282.104 81.5765 281.551 81.5765Z" fill="#2FB464" fill-opacity="0.58"/>
<path d="M322.647 81.5765H299.593C299.039 81.5765 298.591 82.0252 298.591 82.5788V115.656C298.591 116.21 299.039 116.659 299.593 116.659H322.647C323.201 116.659 323.649 116.21 323.649 115.656V82.5788C323.649 82.0252 323.201 81.5765 322.647 81.5765Z" fill="#2FB464" fill-opacity="0.58"/>
<path d="M363.744 81.5765H340.689C340.136 81.5765 339.687 82.0252 339.687 82.5788V115.656C339.687 116.21 340.136 116.659 340.689 116.659H363.744C364.297 116.659 364.746 116.21 364.746 115.656V82.5788C364.746 82.0252 364.297 81.5765 363.744 81.5765Z" fill="#2FB464" fill-opacity="0.58"/>
<path d="M234.44 196.847H189.334V250.974H234.44V196.847Z" fill="#2FB464" fill-opacity="0.58"/>
<path d="M211.887 196.847V223.409V249.972M211.887 196.847H233.438C233.991 196.847 234.44 197.296 234.44 197.849V248.969C234.44 249.523 233.991 249.972 233.438 249.972H190.336C189.783 249.972 189.334 249.523 189.334 248.969V197.849C189.334 197.296 189.783 196.847 190.336 196.847H211.887Z" stroke="#2FB464" stroke-opacity="0.58"/>
<path d="M205.873 223.911H210.384" stroke="#2FB464" stroke-opacity="0.58" stroke-linecap="round"/>
<path d="M192.842 198.351H208.379C208.932 198.351 209.381 198.8 209.381 199.353V219.901C209.381 220.454 208.932 220.904 208.379 220.904H192.842C192.289 220.904 191.84 220.454 191.84 219.901V199.353C191.84 198.8 192.289 198.351 192.842 198.351Z" fill="#2FB464" stroke="#2FB464" stroke-opacity="0.58"/>
<path d="M214.393 219.901V199.353C214.393 198.8 214.842 198.351 215.395 198.351H230.431C230.984 198.351 231.433 198.8 231.433 199.353V219.901C231.433 220.454 230.984 220.904 230.431 220.904H215.395C214.842 220.904 214.393 220.454 214.393 219.901Z" fill="#2FB464" stroke="#2FB464" stroke-opacity="0.58"/>
<path d="M213.391 223.911H217.901" stroke="#2FB464" stroke-opacity="0.58" stroke-linecap="round"/>
<path d="M257.494 255.986H166.28V262H257.494V255.986Z" fill="#2FB464" fill-opacity="0.25"/>
<path d="M242.459 249.972H182.318V255.986H242.459V249.972Z" fill="#2FB464"/>
<defs>
<linearGradient id="paint0_linear_2_186" x1="85.5906" y1="115.155" x2="353.219" y2="178.304" gradientUnits="userSpaceOnUse">
<stop stop-color="#2FB464" stop-opacity="0.58"/>
<stop offset="1" stop-color="#74BCFF"/>
</linearGradient>
<linearGradient id="paint1_linear_2_186" x1="81.08" y1="55.5153" x2="358.231" y2="63.5341" gradientUnits="userSpaceOnUse">
<stop stop-color="#2FB464"/>
<stop offset="1" stop-color="#2FB464" stop-opacity="0.58"/>
</linearGradient>
</defs>
</svg>
