<svg width="420" height="372" viewBox="0 0 420 372" fill="none" xmlns="http://www.w3.org/2000/svg">
<g clip-path="url(#clip0_2_187)">
<path d="M396.403 1H26.4313C-0.108557 1 1.0067 12.3194 1.0067 36.725V325.095C1.0067 349.5 -0.108557 370.645 26.4313 370.645H370.705C397.245 370.645 418.76 375.299 418.76 350.893V36.725C418.76 12.3194 422.943 1 396.403 1Z" fill="white" stroke="#E3000F" stroke-opacity="0.29" stroke-width="2"/>
<path d="M60 212H113.757C114.553 212 115.316 212.316 115.879 212.879L163 260H63C61.343 260 60 258.657 60 257V212Z" fill="url(#paint0_linear_2_187)"/>
<path d="M360 212H306.243C305.447 212 304.684 212.316 304.121 212.879L257 260H357C358.657 260 360 258.657 360 257V212Z" fill="url(#paint1_linear_2_187)"/>
<path d="M111.235 189.521C111.734 189.182 112.322 189 112.925 189H307.075C307.678 189 308.266 189.182 308.765 189.521L330 204H306.252C305.451 204 304.683 204.32 304.119 204.89L256.789 252.708C256.604 252.895 256.5 253.148 256.5 253.411V260H164V253.414C164 253.149 163.895 252.895 163.707 252.707L115.879 204.879C115.316 204.316 114.553 204 113.757 204H90L111.235 189.521Z" fill="url(#paint2_linear_2_187)"/>
<path d="M60 134H112H308H360V204H331V198.523C331 198.195 330.84 197.889 330.571 197.702L308.772 182.537C308.27 182.187 307.672 182 307.059 182H112.941C112.328 182 111.73 182.187 111.228 182.537L89.429 197.702C89.16 197.889 89 198.195 89 198.523V204H60V134Z" fill="url(#paint3_linear_2_187)"/>
<path d="M60 205H113.757C114.553 205 115.316 205.316 115.879 205.879L162.707 252.707C162.895 252.895 163 253.149 163 253.414V259L115.879 211.879C115.316 211.316 114.553 211 113.757 211H60V205Z" fill="url(#paint4_linear_2_187)"/>
<path d="M360 205H306.243C305.447 205 304.684 205.316 304.121 205.879L257.293 252.707C257.105 252.895 257 253.149 257 253.414V259L304.121 211.879C304.684 211.316 305.447 211 306.243 211H360V205Z" fill="url(#paint5_linear_2_187)"/>
<path d="M111.225 183.542C111.73 183.189 112.33 183 112.946 183H307.054C307.67 183 308.27 183.189 308.775 183.542L329.573 198.101C329.841 198.289 330 198.594 330 198.921V203L308.765 188.521C308.266 188.182 307.678 188 307.075 188H112.925C112.322 188 111.734 188.182 111.235 188.521L90 203V198.921C90 198.594 90.159 198.289 90.427 198.101L111.225 183.542Z" fill="url(#paint6_linear_2_187)"/>
<path d="M60 52C60 50.343 61.343 49 63 49H357C358.657 49 360 50.343 360 52V119H60V52Z" fill="#E3000F"/>
<path d="M71 136.5H135C136.381 136.5 137.5 137.619 137.5 139V175C137.5 176.381 136.381 177.5 135 177.5H71C69.619 177.5 68.5 176.381 68.5 175V139C68.5 137.619 69.619 136.5 71 136.5Z" fill="#A9D6FF" stroke="#154C7F"/>
<path d="M349 136.5H285C283.619 136.5 282.5 137.619 282.5 139V175C282.5 176.381 283.619 177.5 285 177.5H349C350.381 177.5 351.5 176.381 351.5 175V139C351.5 137.619 350.381 136.5 349 136.5Z" fill="#A9D6FF" stroke="#154C7F"/>
<path d="M147 136.5H186C187.381 136.5 188.5 137.619 188.5 139V175C188.5 176.381 187.381 177.5 186 177.5H147C145.619 177.5 144.5 176.381 144.5 175V139C144.5 137.619 145.619 136.5 147 136.5Z" fill="#A9D6FF" stroke="#154C7F"/>
<path d="M273 136.5H234C232.619 136.5 231.5 137.619 231.5 139V175C231.5 176.381 232.619 177.5 234 177.5H273C274.381 177.5 275.5 176.381 275.5 175V139C275.5 137.619 274.381 136.5 273 136.5Z" fill="#A9D6FF" stroke="#154C7F"/>
<path d="M204 66.5H142C140.619 66.5 139.5 67.6193 139.5 69V108C139.5 109.381 140.619 110.5 142 110.5H204C205.381 110.5 206.5 109.381 206.5 108V69C206.5 67.6193 205.381 66.5 204 66.5Z" fill="#A9D6FF" stroke="#154C7F"/>
<path d="M278 66.5H216C214.619 66.5 213.5 67.6193 213.5 69V108C213.5 109.381 214.619 110.5 216 110.5H278C279.381 110.5 280.5 109.381 280.5 108V69C280.5 67.6193 279.381 66.5 278 66.5Z" fill="#A9D6FF" stroke="#154C7F"/>
<path d="M349 66.5H289C287.619 66.5 286.5 67.6193 286.5 69V108C286.5 109.381 287.619 110.5 289 110.5H349C350.381 110.5 351.5 109.381 351.5 108V69C351.5 67.6193 350.381 66.5 349 66.5Z" fill="#A9D6FF" stroke="#154C7F"/>
<path d="M71 66.5H131C132.381 66.5 133.5 67.619 133.5 69V108C133.5 109.381 132.381 110.5 131 110.5H71C69.619 110.5 68.5 109.381 68.5 108V69C68.5 67.619 69.619 66.5 71 66.5Z" fill="#A9D6FF" stroke="#154C7F"/>
<path d="M194 138H227V181H194V138Z" fill="#E3000F"/>
<path d="M210.5 137.5V160V181M210.5 137.5H226C226.552 137.5 227 137.948 227 138.5V180.5C227 181.052 226.552 181.5 226 181.5H195C194.448 181.5 194 181.052 194 180.5V138.5C194 137.948 194.448 137.5 195 137.5H210.5Z" stroke="#154C7F"/>
<path d="M206 159.5H209" stroke="#154C7F" stroke-linecap="round"/>
<path d="M197 138.977H208C208.552 138.977 209 139.425 209 139.977V156.545C209 157.098 208.552 157.545 208 157.545H197C196.448 157.545 196 157.098 196 156.545V139.977C196 139.425 196.448 138.977 197 138.977Z" fill="#A9D6FF" stroke="#154C7F"/>
<path d="M212 156.545V139.977C212 139.425 212.448 138.977 213 138.977H224C224.552 138.977 225 139.425 225 139.977V156.545C225 157.098 224.552 157.545 224 157.545H213C212.448 157.545 212 157.098 212 156.545Z" fill="#A9D6FF" stroke="#154C7F"/>
<path d="M212 159.5H215" stroke="#154C7F" stroke-linecap="round"/>
<g filter="url(#filter0_d_2_187)">
<path d="M357 48H63C60.7909 48 59 49.7909 59 52V257C59 259.209 60.7909 261 63 261H357C359.209 261 361 259.209 361 257V52C361 49.7909 359.209 48 357 48Z" stroke="#E3000F" stroke-width="2"/>
</g>
<path d="M368.5 120.5H52.5V132.5H368.5V120.5Z" fill="url(#paint7_linear_2_187)" stroke="#154C7F"/>
<path d="M360 118H58V119H360V118Z" fill="#154C7F"/>
<path d="M360 134H58V135H360V134Z" fill="#154C7F"/>
<path d="M60 119H58V120H60V119Z" fill="white"/>
<path d="M60 133H58V134H60V133Z" fill="white"/>
<path d="M362 119H360V120H362V119Z" fill="white"/>
<path d="M362 133H360V134H362V133Z" fill="white"/>
<path d="M101.334 310V296H113.394V310H111.434V297.22L111.914 297.74H102.814L103.314 297.22V310H101.334ZM123.06 310.12C122.18 310.12 121.373 309.92 120.64 309.52C119.92 309.107 119.34 308.5 118.9 307.7C118.473 306.9 118.26 305.9 118.26 304.7C118.26 303.5 118.467 302.5 118.88 301.7C119.307 300.9 119.88 300.3 120.6 299.9C121.333 299.5 122.153 299.3 123.06 299.3C124.1 299.3 125.02 299.527 125.82 299.98C126.62 300.433 127.253 301.067 127.72 301.88C128.187 302.68 128.42 303.62 128.42 304.7C128.42 305.78 128.187 306.727 127.72 307.54C127.253 308.353 126.62 308.987 125.82 309.44C125.02 309.893 124.1 310.12 123.06 310.12ZM117.44 313.88V299.4H119.28V302.26L119.16 304.72L119.36 307.18V313.88H117.44ZM122.9 308.44C123.58 308.44 124.187 308.287 124.72 307.98C125.267 307.673 125.693 307.24 126 306.68C126.32 306.107 126.48 305.447 126.48 304.7C126.48 303.94 126.32 303.287 126 302.74C125.693 302.18 125.267 301.747 124.72 301.44C124.187 301.133 123.58 300.98 122.9 300.98C122.233 300.98 121.627 301.133 121.08 301.44C120.547 301.747 120.12 302.18 119.8 302.74C119.493 303.287 119.34 303.94 119.34 304.7C119.34 305.447 119.493 306.107 119.8 306.68C120.12 307.24 120.547 307.673 121.08 307.98C121.627 308.287 122.233 308.44 122.9 308.44ZM131.21 310V299.4H133.13V307.12L139.63 299.4H141.37V310H139.45V302.28L132.97 310H131.21ZM149.816 310.12C148.683 310.12 147.683 309.887 146.816 309.42C145.963 308.953 145.296 308.313 144.816 307.5C144.35 306.687 144.116 305.753 144.116 304.7C144.116 303.647 144.343 302.713 144.796 301.9C145.263 301.087 145.896 300.453 146.696 300C147.51 299.533 148.423 299.3 149.436 299.3C150.463 299.3 151.37 299.527 152.156 299.98C152.943 300.433 153.556 301.073 153.996 301.9C154.45 302.713 154.676 303.667 154.676 304.76C154.676 304.84 154.67 304.933 154.656 305.04C154.656 305.147 154.65 305.247 154.636 305.34H145.616V303.96H153.636L152.856 304.44C152.87 303.76 152.73 303.153 152.436 302.62C152.143 302.087 151.736 301.673 151.216 301.38C150.71 301.073 150.116 300.92 149.436 300.92C148.77 300.92 148.176 301.073 147.656 301.38C147.136 301.673 146.73 302.093 146.436 302.64C146.143 303.173 145.996 303.787 145.996 304.48V304.8C145.996 305.507 146.156 306.14 146.476 306.7C146.81 307.247 147.27 307.673 147.856 307.98C148.443 308.287 149.116 308.44 149.876 308.44C150.503 308.44 151.07 308.333 151.576 308.12C152.096 307.907 152.55 307.587 152.936 307.16L153.996 308.4C153.516 308.96 152.916 309.387 152.196 309.68C151.49 309.973 150.696 310.12 149.816 310.12ZM151.276 297.52C150.996 297.52 150.756 297.427 150.556 297.24C150.356 297.04 150.256 296.793 150.256 296.5C150.256 296.193 150.356 295.947 150.556 295.76C150.756 295.56 150.996 295.46 151.276 295.46C151.556 295.46 151.796 295.56 151.996 295.76C152.196 295.947 152.296 296.193 152.296 296.5C152.296 296.793 152.196 297.04 151.996 297.24C151.796 297.427 151.556 297.52 151.276 297.52ZM147.556 297.52C147.276 297.52 147.036 297.427 146.836 297.24C146.636 297.04 146.536 296.793 146.536 296.5C146.536 296.193 146.636 295.947 146.836 295.76C147.036 295.56 147.276 295.46 147.556 295.46C147.836 295.46 148.076 295.56 148.276 295.76C148.476 295.947 148.576 296.193 148.576 296.5C148.576 296.793 148.476 297.04 148.276 297.24C148.076 297.427 147.836 297.52 147.556 297.52ZM157.655 310V299.4H159.635L164.195 307.24H163.395L168.075 299.4H169.875V310H168.135V301.56L168.455 301.74L164.175 308.8H163.335L159.035 301.6L159.415 301.52V310H157.655ZM173.612 310V299.4H175.532V303.9H181.572V299.4H183.492V310H181.572V305.56H175.532V310H173.612ZM193.725 310V307.76L193.625 307.34V303.52C193.625 302.707 193.385 302.08 192.905 301.64C192.439 301.187 191.732 300.96 190.785 300.96C190.159 300.96 189.545 301.067 188.945 301.28C188.345 301.48 187.839 301.753 187.425 302.1L186.625 300.66C187.172 300.22 187.825 299.887 188.585 299.66C189.359 299.42 190.165 299.3 191.005 299.3C192.459 299.3 193.579 299.653 194.365 300.36C195.152 301.067 195.545 302.147 195.545 303.6V310H193.725ZM190.245 310.12C189.459 310.12 188.765 309.987 188.165 309.72C187.579 309.453 187.125 309.087 186.805 308.62C186.485 308.14 186.325 307.6 186.325 307C186.325 306.427 186.459 305.907 186.725 305.44C187.005 304.973 187.452 304.6 188.065 304.32C188.692 304.04 189.532 303.9 190.585 303.9H193.945V305.28H190.665C189.705 305.28 189.059 305.44 188.725 305.76C188.392 306.08 188.225 306.467 188.225 306.92C188.225 307.44 188.432 307.86 188.845 308.18C189.259 308.487 189.832 308.64 190.565 308.64C191.285 308.64 191.912 308.48 192.445 308.16C192.992 307.84 193.385 307.373 193.625 306.76L194.005 308.08C193.752 308.707 193.305 309.207 192.665 309.58C192.025 309.94 191.219 310.12 190.245 310.12ZM205.783 310V306.28L206.083 306.64H202.703C201.289 306.64 200.183 306.34 199.383 305.74C198.596 305.14 198.203 304.267 198.203 303.12C198.203 301.893 198.623 300.967 199.463 300.34C200.316 299.713 201.449 299.4 202.863 299.4H207.503V310H205.783ZM198.103 310L200.983 305.94H202.963L200.163 310H198.103ZM205.783 305.68V300.54L206.083 301.08H202.923C202.043 301.08 201.363 301.247 200.883 301.58C200.403 301.9 200.163 302.433 200.163 303.18C200.163 304.567 201.056 305.26 202.843 305.26H206.083L205.783 305.68ZM224.3 310L220.2 304.84L221.78 303.88L226.56 310H224.3ZM216.62 310V299.4H218.54V310H216.62ZM217.96 305.52V303.88H221.46V305.52H217.96ZM221.94 304.92L220.16 304.68L224.22 299.4H226.28L221.94 304.92ZM232.761 310.12C231.695 310.12 230.748 309.887 229.921 309.42C229.095 308.953 228.441 308.313 227.961 307.5C227.481 306.673 227.241 305.74 227.241 304.7C227.241 303.647 227.481 302.713 227.961 301.9C228.441 301.087 229.095 300.453 229.921 300C230.748 299.533 231.695 299.3 232.761 299.3C233.815 299.3 234.755 299.533 235.581 300C236.421 300.453 237.075 301.087 237.541 301.9C238.021 302.7 238.261 303.633 238.261 304.7C238.261 305.753 238.021 306.687 237.541 307.5C237.075 308.313 236.421 308.953 235.581 309.42C234.755 309.887 233.815 310.12 232.761 310.12ZM232.761 308.44C233.441 308.44 234.048 308.287 234.581 307.98C235.128 307.673 235.555 307.24 235.861 306.68C236.168 306.107 236.321 305.447 236.321 304.7C236.321 303.94 236.168 303.287 235.861 302.74C235.555 302.18 235.128 301.747 234.581 301.44C234.048 301.133 233.441 300.98 232.761 300.98C232.081 300.98 231.475 301.133 230.941 301.44C230.408 301.747 229.981 302.18 229.661 302.74C229.341 303.287 229.181 303.94 229.181 304.7C229.181 305.447 229.341 306.107 229.661 306.68C229.981 307.24 230.408 307.673 230.941 307.98C231.475 308.287 232.081 308.44 232.761 308.44ZM241.034 310V299.4H243.014L247.574 307.24H246.774L251.454 299.4H253.254V310H251.514V301.56L251.834 301.74L247.554 308.8H246.714L242.414 301.6L242.794 301.52V310H241.034ZM256.991 310V299.4H258.911V307.12L265.411 299.4H267.151V310H265.231V302.28L258.751 310H256.991ZM275.498 310.12C274.418 310.12 273.451 309.887 272.598 309.42C271.758 308.953 271.098 308.313 270.618 307.5C270.138 306.687 269.898 305.753 269.898 304.7C269.898 303.647 270.138 302.713 270.618 301.9C271.098 301.087 271.758 300.453 272.598 300C273.451 299.533 274.418 299.3 275.498 299.3C276.458 299.3 277.311 299.493 278.058 299.88C278.818 300.253 279.404 300.813 279.818 301.56L278.358 302.5C278.011 301.98 277.584 301.6 277.078 301.36C276.584 301.107 276.051 300.98 275.478 300.98C274.784 300.98 274.164 301.133 273.618 301.44C273.071 301.747 272.638 302.18 272.318 302.74C271.998 303.287 271.838 303.94 271.838 304.7C271.838 305.46 271.998 306.12 272.318 306.68C272.638 307.24 273.071 307.673 273.618 307.98C274.164 308.287 274.784 308.44 275.478 308.44C276.051 308.44 276.584 308.32 277.078 308.08C277.584 307.827 278.011 307.44 278.358 306.92L279.818 307.84C279.404 308.573 278.818 309.14 278.058 309.54C277.311 309.927 276.458 310.12 275.498 310.12ZM286.767 310.12C285.687 310.12 284.72 309.887 283.867 309.42C283.027 308.953 282.367 308.313 281.887 307.5C281.407 306.687 281.167 305.753 281.167 304.7C281.167 303.647 281.407 302.713 281.887 301.9C282.367 301.087 283.027 300.453 283.867 300C284.72 299.533 285.687 299.3 286.767 299.3C287.727 299.3 288.58 299.493 289.327 299.88C290.087 300.253 290.674 300.813 291.087 301.56L289.627 302.5C289.28 301.98 288.854 301.6 288.347 301.36C287.854 301.107 287.32 300.98 286.747 300.98C286.054 300.98 285.434 301.133 284.887 301.44C284.34 301.747 283.907 302.18 283.587 302.74C283.267 303.287 283.107 303.94 283.107 304.7C283.107 305.46 283.267 306.12 283.587 306.68C283.907 307.24 284.34 307.673 284.887 307.98C285.434 308.287 286.054 308.44 286.747 308.44C287.32 308.44 287.854 308.32 288.347 308.08C288.854 307.827 289.28 307.44 289.627 306.92L291.087 307.84C290.674 308.573 290.087 309.14 289.327 309.54C288.58 309.927 287.727 310.12 286.767 310.12ZM293.573 310V299.4H295.493V307.12L301.993 299.4H303.733V310H301.813V302.28L295.333 310H293.573ZM314.24 310V306.28L314.54 306.64H311.16C309.746 306.64 308.64 306.34 307.84 305.74C307.053 305.14 306.66 304.267 306.66 303.12C306.66 301.893 307.08 300.967 307.92 300.34C308.773 299.713 309.906 299.4 311.32 299.4H315.96V310H314.24ZM306.56 310L309.44 305.94H311.42L308.62 310H306.56ZM314.24 305.68V300.54L314.54 301.08H311.38C310.5 301.08 309.82 301.247 309.34 301.58C308.86 301.9 308.62 302.433 308.62 303.18C308.62 304.567 309.513 305.26 311.3 305.26H314.54L314.24 305.68ZM96.2564 334.16C95.1897 334.16 94.2031 333.987 93.2964 333.64C92.4031 333.28 91.6231 332.78 90.9564 332.14C90.3031 331.487 89.7897 330.727 89.4164 329.86C89.0431 328.993 88.8564 328.04 88.8564 327C88.8564 325.96 89.0431 325.007 89.4164 324.14C89.7897 323.273 90.3097 322.52 90.9764 321.88C91.6431 321.227 92.4231 320.727 93.3164 320.38C94.2231 320.02 95.2097 319.84 96.2764 319.84C97.3564 319.84 98.3497 320.027 99.2564 320.4C100.176 320.76 100.956 321.3 101.596 322.02L100.296 323.28C99.7631 322.72 99.1631 322.307 98.4964 322.04C97.8297 321.76 97.1164 321.62 96.3564 321.62C95.5697 321.62 94.8364 321.753 94.1564 322.02C93.4897 322.287 92.9097 322.66 92.4164 323.14C91.9231 323.62 91.5364 324.193 91.2564 324.86C90.9897 325.513 90.8564 326.227 90.8564 327C90.8564 327.773 90.9897 328.493 91.2564 329.16C91.5364 329.813 91.9231 330.38 92.4164 330.86C92.9097 331.34 93.4897 331.713 94.1564 331.98C94.8364 332.247 95.5697 332.38 96.3564 332.38C97.1164 332.38 97.8297 332.247 98.4964 331.98C99.1631 331.7 99.7631 331.273 100.296 330.7L101.596 331.96C100.956 332.68 100.176 333.227 99.2564 333.6C98.3497 333.973 97.3497 334.16 96.2564 334.16ZM104.352 334V320H113.532L113.512 321.74H105.832L106.312 321.24L106.332 334H104.352ZM118.774 334V321.22L119.274 321.74H113.994V320H125.534V321.74H120.254L120.734 321.22V334H118.774ZM127.32 332.24C128.013 332.493 128.653 332.56 129.24 332.44C129.826 332.307 130.353 331.86 130.82 331.1L131.5 330.02L131.7 329.8L136.84 320H138.82L132.6 331.52C132.133 332.4 131.586 333.067 130.96 333.52C130.346 333.96 129.68 334.2 128.96 334.24C128.253 334.293 127.533 334.16 126.8 333.84L127.32 332.24ZM131.64 331.58L125.5 320H127.64L132.74 329.98L131.64 331.58ZM146.239 334V323.4H148.159V331.12L154.659 323.4H156.399V334H154.479V326.28L147.999 334H146.239ZM160.126 334V323.4H162.106L166.666 331.24H165.866L170.546 323.4H172.346V334H170.606V325.56L170.926 325.74L166.646 332.8H165.806L161.506 325.6L161.886 325.52V334H160.126ZM176.503 334.12C176.129 334.12 175.809 333.993 175.543 333.74C175.276 333.473 175.143 333.14 175.143 332.74C175.143 332.34 175.276 332.013 175.543 331.76C175.809 331.507 176.129 331.38 176.503 331.38C176.863 331.38 177.169 331.507 177.423 331.76C177.689 332.013 177.823 332.34 177.823 332.74C177.823 333.14 177.689 333.473 177.423 333.74C177.169 333.993 176.863 334.12 176.503 334.12ZM186.305 334V320H195.485L195.465 321.74H187.785L188.265 321.24L188.285 334H186.305ZM204.048 334V331.76L203.948 331.34V327.52C203.948 326.707 203.708 326.08 203.228 325.64C202.761 325.187 202.054 324.96 201.108 324.96C200.481 324.96 199.868 325.067 199.268 325.28C198.668 325.48 198.161 325.753 197.748 326.1L196.948 324.66C197.494 324.22 198.148 323.887 198.908 323.66C199.681 323.42 200.488 323.3 201.328 323.3C202.781 323.3 203.901 323.653 204.688 324.36C205.474 325.067 205.868 326.147 205.868 327.6V334H204.048ZM200.568 334.12C199.781 334.12 199.088 333.987 198.488 333.72C197.901 333.453 197.448 333.087 197.128 332.62C196.808 332.14 196.648 331.6 196.648 331C196.648 330.427 196.781 329.907 197.048 329.44C197.328 328.973 197.774 328.6 198.388 328.32C199.014 328.04 199.854 327.9 200.908 327.9H204.268V329.28H200.988C200.028 329.28 199.381 329.44 199.048 329.76C198.714 330.08 198.548 330.467 198.548 330.92C198.548 331.44 198.754 331.86 199.168 332.18C199.581 332.487 200.154 332.64 200.888 332.64C201.608 332.64 202.234 332.48 202.768 332.16C203.314 331.84 203.708 331.373 203.948 330.76L204.328 332.08C204.074 332.707 203.628 333.207 202.988 333.58C202.348 333.94 201.541 334.12 200.568 334.12ZM209.325 334V323.4H217.125V325.08H210.785L211.245 324.64V334H209.325ZM225.59 334V331.76L225.49 331.34V327.52C225.49 326.707 225.25 326.08 224.77 325.64C224.304 325.187 223.597 324.96 222.65 324.96C222.024 324.96 221.41 325.067 220.81 325.28C220.21 325.48 219.704 325.753 219.29 326.1L218.49 324.66C219.037 324.22 219.69 323.887 220.45 323.66C221.224 323.42 222.03 323.3 222.87 323.3C224.324 323.3 225.444 323.653 226.23 324.36C227.017 325.067 227.41 326.147 227.41 327.6V334H225.59ZM222.11 334.12C221.324 334.12 220.63 333.987 220.03 333.72C219.444 333.453 218.99 333.087 218.67 332.62C218.35 332.14 218.19 331.6 218.19 331C218.19 330.427 218.324 329.907 218.59 329.44C218.87 328.973 219.317 328.6 219.93 328.32C220.557 328.04 221.397 327.9 222.45 327.9H225.81V329.28H222.53C221.57 329.28 220.924 329.44 220.59 329.76C220.257 330.08 220.09 330.467 220.09 330.92C220.09 331.44 220.297 331.86 220.71 332.18C221.124 332.487 221.697 332.64 222.43 332.64C223.15 332.64 223.777 332.48 224.31 332.16C224.857 331.84 225.25 331.373 225.49 330.76L225.87 332.08C225.617 332.707 225.17 333.207 224.53 333.58C223.89 333.94 223.084 334.12 222.11 334.12ZM236.488 334.12C235.608 334.12 234.801 333.92 234.068 333.52C233.348 333.107 232.768 332.5 232.328 331.7C231.901 330.9 231.688 329.9 231.688 328.7C231.688 327.5 231.894 326.5 232.308 325.7C232.734 324.9 233.308 324.3 234.028 323.9C234.761 323.5 235.581 323.3 236.488 323.3C237.528 323.3 238.448 323.527 239.248 323.98C240.048 324.433 240.681 325.067 241.148 325.88C241.614 326.68 241.848 327.62 241.848 328.7C241.848 329.78 241.614 330.727 241.148 331.54C240.681 332.353 240.048 332.987 239.248 333.44C238.448 333.893 237.528 334.12 236.488 334.12ZM230.868 337.88V323.4H232.708V326.26L232.588 328.72L232.788 331.18V337.88H230.868ZM236.328 332.44C237.008 332.44 237.614 332.287 238.148 331.98C238.694 331.673 239.121 331.24 239.428 330.68C239.748 330.107 239.908 329.447 239.908 328.7C239.908 327.94 239.748 327.287 239.428 326.74C239.121 326.18 238.694 325.747 238.148 325.44C237.614 325.133 237.008 324.98 236.328 324.98C235.661 324.98 235.054 325.133 234.508 325.44C233.974 325.747 233.548 326.18 233.228 326.74C232.921 327.287 232.768 327.94 232.768 328.7C232.768 329.447 232.921 330.107 233.228 330.68C233.548 331.24 233.974 331.673 234.508 331.98C235.054 332.287 235.661 332.44 236.328 332.44ZM244.637 334V323.4H246.557V331.12L253.057 323.4H254.797V334H252.877V326.28L246.397 334H244.637ZM258.524 334V323.4H260.444V327.9H266.484V323.4H268.404V334H266.484V329.56H260.444V334H258.524ZM278.637 334V331.76L278.537 331.34V327.52C278.537 326.707 278.297 326.08 277.817 325.64C277.351 325.187 276.644 324.96 275.697 324.96C275.071 324.96 274.457 325.067 273.857 325.28C273.257 325.48 272.751 325.753 272.337 326.1L271.537 324.66C272.084 324.22 272.737 323.887 273.497 323.66C274.271 323.42 275.077 323.3 275.917 323.3C277.371 323.3 278.491 323.653 279.277 324.36C280.064 325.067 280.457 326.147 280.457 327.6V334H278.637ZM275.157 334.12C274.371 334.12 273.677 333.987 273.077 333.72C272.491 333.453 272.037 333.087 271.717 332.62C271.397 332.14 271.237 331.6 271.237 331C271.237 330.427 271.371 329.907 271.637 329.44C271.917 328.973 272.364 328.6 272.977 328.32C273.604 328.04 274.444 327.9 275.497 327.9H278.857V329.28H275.577C274.617 329.28 273.971 329.44 273.637 329.76C273.304 330.08 273.137 330.467 273.137 330.92C273.137 331.44 273.344 331.86 273.757 332.18C274.171 332.487 274.744 332.64 275.477 332.64C276.197 332.64 276.824 332.48 277.357 332.16C277.904 331.84 278.297 331.373 278.537 330.76L278.917 332.08C278.664 332.707 278.217 333.207 277.577 333.58C276.937 333.94 276.131 334.12 275.157 334.12ZM289.606 334V320H291.586V326H295.206V327.8H291.586V334H289.606ZM301.206 334.16C300.192 334.16 299.252 333.987 298.386 333.64C297.519 333.28 296.766 332.78 296.126 332.14C295.486 331.487 294.986 330.727 294.626 329.86C294.279 328.993 294.106 328.04 294.106 327C294.106 325.96 294.279 325.007 294.626 324.14C294.986 323.273 295.486 322.52 296.126 321.88C296.766 321.227 297.519 320.727 298.386 320.38C299.252 320.02 300.192 319.84 301.206 319.84C302.219 319.84 303.159 320.02 304.026 320.38C304.906 320.727 305.666 321.227 306.306 321.88C306.946 322.52 307.439 323.273 307.786 324.14C308.146 325.007 308.326 325.96 308.326 327C308.326 328.04 308.146 328.993 307.786 329.86C307.439 330.727 306.946 331.487 306.306 332.14C305.666 332.78 304.906 333.28 304.026 333.64C303.159 333.987 302.219 334.16 301.206 334.16ZM301.206 332.36C301.939 332.36 302.612 332.233 303.226 331.98C303.852 331.713 304.392 331.34 304.846 330.86C305.312 330.38 305.672 329.813 305.926 329.16C306.192 328.507 306.326 327.787 306.326 327C306.326 326.213 306.192 325.493 305.926 324.84C305.672 324.187 305.312 323.62 304.846 323.14C304.392 322.66 303.852 322.293 303.226 322.04C302.612 321.773 301.946 321.64 301.226 321.64C300.506 321.64 299.832 321.773 299.206 322.04C298.592 322.293 298.052 322.66 297.586 323.14C297.132 323.62 296.772 324.187 296.506 324.84C296.252 325.493 296.126 326.213 296.126 327C296.126 327.787 296.252 328.507 296.506 329.16C296.772 329.813 297.132 330.38 297.586 330.86C298.052 331.34 298.592 331.713 299.206 331.98C299.832 332.233 300.499 332.36 301.206 332.36ZM311.288 334.12C310.914 334.12 310.594 333.993 310.328 333.74C310.061 333.473 309.928 333.14 309.928 332.74C309.928 332.34 310.061 332.013 310.328 331.76C310.594 331.507 310.914 331.38 311.288 331.38C311.648 331.38 311.954 331.507 312.208 331.76C312.474 332.013 312.608 332.34 312.608 332.74C312.608 333.14 312.474 333.473 312.208 333.74C311.954 333.993 311.648 334.12 311.288 334.12ZM314.443 334L320.783 320H322.763L329.123 334H327.023L321.363 321.12H322.163L316.503 334H314.443ZM317.143 330.5L317.683 328.9H325.563L326.143 330.5H317.143ZM332.303 334.12C331.93 334.12 331.61 333.993 331.343 333.74C331.077 333.473 330.943 333.14 330.943 332.74C330.943 332.34 331.077 332.013 331.343 331.76C331.61 331.507 331.93 331.38 332.303 331.38C332.663 331.38 332.97 331.507 333.223 331.76C333.49 332.013 333.623 332.34 333.623 332.74C333.623 333.14 333.49 333.473 333.223 333.74C332.97 333.993 332.663 334.12 332.303 334.12Z" fill="black" fill-opacity="0.65"/>
</g>
<defs>
<filter id="filter0_d_2_187" x="54" y="47" width="312" height="223" filterUnits="userSpaceOnUse" color-interpolation-filters="sRGB">
<feFlood flood-opacity="0" result="BackgroundImageFix"/>
<feColorMatrix in="SourceAlpha" type="matrix" values="0 0 0 0 0 0 0 0 0 0 0 0 0 0 0 0 0 0 127 0" result="hardAlpha"/>
<feOffset dy="4"/>
<feGaussianBlur stdDeviation="2"/>
<feComposite in2="hardAlpha" operator="out"/>
<feColorMatrix type="matrix" values="0 0 0 0 0 0 0 0 0 0 0 0 0 0 0 0 0 0 0.25 0"/>
<feBlend mode="normal" in2="BackgroundImageFix" result="effect1_dropShadow_2_187"/>
<feBlend mode="normal" in="SourceGraphic" in2="effect1_dropShadow_2_187" result="shape"/>
</filter>
<linearGradient id="paint0_linear_2_187" x1="60.687" y1="212.851" x2="163.719" y2="260.837" gradientUnits="userSpaceOnUse">
<stop stop-color="#E3000F"/>
<stop offset="1" stop-color="#E3000F" stop-opacity="0.29"/>
</linearGradient>
<linearGradient id="paint1_linear_2_187" x1="359.313" y1="212.851" x2="256.281" y2="260.837" gradientUnits="userSpaceOnUse">
<stop stop-color="#E3000F"/>
<stop offset="1" stop-color="#E3000F" stop-opacity="0.29"/>
</linearGradient>
<linearGradient id="paint2_linear_2_187" x1="91.6" y1="190.259" x2="281.522" y2="329.599" gradientUnits="userSpaceOnUse">
<stop stop-color="#E3000F"/>
<stop offset="1" stop-color="#E3000F" stop-opacity="0.29"/>
</linearGradient>
<linearGradient id="paint3_linear_2_187" x1="62" y1="135.241" x2="257.786" y2="317.359" gradientUnits="userSpaceOnUse">
<stop stop-color="#E3000F"/>
<stop offset="1" stop-color="#E3000F" stop-opacity="0.29"/>
</linearGradient>
<linearGradient id="paint4_linear_2_187" x1="111.5" y1="205" x2="111.5" y2="259" gradientUnits="userSpaceOnUse">
<stop stop-color="#E3000F"/>
<stop offset="1" stop-color="#E3000F" stop-opacity="0.29"/>
</linearGradient>
<linearGradient id="paint5_linear_2_187" x1="308.5" y1="205" x2="308.5" y2="259" gradientUnits="userSpaceOnUse">
<stop stop-color="#E3000F"/>
<stop offset="1" stop-color="#E3000F" stop-opacity="0.29"/>
</linearGradient>
<linearGradient id="paint6_linear_2_187" x1="210" y1="183" x2="210" y2="203" gradientUnits="userSpaceOnUse">
<stop stop-color="#E3000F"/>
<stop offset="1" stop-color="#E3000F" stop-opacity="0.29"/>
</linearGradient>
<linearGradient id="paint7_linear_2_187" x1="210.5" y1="121" x2="210.5" y2="132" gradientUnits="userSpaceOnUse">
<stop stop-color="#E3000F"/>
<stop offset="1" stop-color="#E3000F" stop-opacity="0.29"/>
</linearGradient>
<clipPath id="clip0_2_187">
<rect width="420" height="372" fill="white"/>
</clipPath>
</defs>
</svg>
