<svg width="420" height="372" viewBox="0 0 420 372" fill="none" xmlns="http://www.w3.org/2000/svg">
<path d="M396.403 1H26.4313C-0.108556 1 1.0067 12.3194 1.0067 36.725V325.095C1.0067 349.5 -0.108556 370.645 26.4313 370.645H370.705C397.245 370.645 418.76 375.299 418.76 350.893V36.725C418.76 12.3194 422.943 1 396.403 1Z" fill="white" stroke="#0061C7" stroke-width="2"/>
<path d="M60 119H58V120H60V119Z" fill="white"/>
<path d="M60 133H58V134H60V133Z" fill="white"/>
<path d="M362 119H360V120H362V119Z" fill="white"/>
<path d="M362 133H360V134H362V133Z" fill="white"/>
<path d="M74.6607 307.16C73.594 307.16 72.6074 306.987 71.7007 306.64C70.8074 306.28 70.0274 305.78 69.3607 305.14C68.7074 304.487 68.194 303.727 67.8207 302.86C67.4474 301.993 67.2607 301.04 67.2607 300C67.2607 298.96 67.4474 298.007 67.8207 297.14C68.194 296.273 68.714 295.52 69.3807 294.88C70.0474 294.227 70.8274 293.727 71.7207 293.38C72.6274 293.02 73.614 292.84 74.6807 292.84C75.7607 292.84 76.754 293.027 77.6607 293.4C78.5807 293.76 79.3607 294.3 80.0007 295.02L78.7007 296.28C78.1674 295.72 77.5674 295.307 76.9007 295.04C76.234 294.76 75.5207 294.62 74.7607 294.62C73.974 294.62 73.2407 294.753 72.5607 295.02C71.894 295.287 71.314 295.66 70.8207 296.14C70.3274 296.62 69.9407 297.193 69.6607 297.86C69.394 298.513 69.2607 299.227 69.2607 300C69.2607 300.773 69.394 301.493 69.6607 302.16C69.9407 302.813 70.3274 303.38 70.8207 303.86C71.314 304.34 71.894 304.713 72.5607 304.98C73.2407 305.247 73.974 305.38 74.7607 305.38C75.5207 305.38 76.234 305.247 76.9007 304.98C77.5674 304.7 78.1674 304.273 78.7007 303.7L80.0007 304.96C79.3607 305.68 78.5807 306.227 77.6607 306.6C76.754 306.973 75.754 307.16 74.6607 307.16ZM86.527 307.12C85.4603 307.12 84.5136 306.887 83.687 306.42C82.8603 305.953 82.207 305.313 81.727 304.5C81.247 303.673 81.007 302.74 81.007 301.7C81.007 300.647 81.247 299.713 81.727 298.9C82.207 298.087 82.8603 297.453 83.687 297C84.5136 296.533 85.4603 296.3 86.527 296.3C87.5803 296.3 88.5203 296.533 89.347 297C90.187 297.453 90.8403 298.087 91.307 298.9C91.787 299.7 92.027 300.633 92.027 301.7C92.027 302.753 91.787 303.687 91.307 304.5C90.8403 305.313 90.187 305.953 89.347 306.42C88.5203 306.887 87.5803 307.12 86.527 307.12ZM86.527 305.44C87.207 305.44 87.8136 305.287 88.347 304.98C88.8936 304.673 89.3203 304.24 89.627 303.68C89.9336 303.107 90.087 302.447 90.087 301.7C90.087 300.94 89.9336 300.287 89.627 299.74C89.3203 299.18 88.8936 298.747 88.347 298.44C87.8136 298.133 87.207 297.98 86.527 297.98C85.847 297.98 85.2403 298.133 84.707 298.44C84.1736 298.747 83.747 299.18 83.427 299.74C83.107 300.287 82.947 300.94 82.947 301.7C82.947 302.447 83.107 303.107 83.427 303.68C83.747 304.24 84.1736 304.673 84.707 304.98C85.2403 305.287 85.847 305.44 86.527 305.44ZM94.7995 307V296.4H96.7195V305.32H102.519V296.4H104.439V307H94.7995ZM104.299 309.46V306.9L104.779 307H102.519V305.32H106.119V309.46H104.299ZM108.608 307V296.4H110.528V304.12L117.028 296.4H118.768V307H116.848V299.28L110.368 307H108.608ZM128.995 307V304.76L128.895 304.34V300.52C128.895 299.707 128.655 299.08 128.175 298.64C127.708 298.187 127.001 297.96 126.055 297.96C125.428 297.96 124.815 298.067 124.215 298.28C123.615 298.48 123.108 298.753 122.695 299.1L121.895 297.66C122.441 297.22 123.095 296.887 123.855 296.66C124.628 296.42 125.435 296.3 126.275 296.3C127.728 296.3 128.848 296.653 129.635 297.36C130.421 298.067 130.815 299.147 130.815 300.6V307H128.995ZM125.515 307.12C124.728 307.12 124.035 306.987 123.435 306.72C122.848 306.453 122.395 306.087 122.075 305.62C121.755 305.14 121.595 304.6 121.595 304C121.595 303.427 121.728 302.907 121.995 302.44C122.275 301.973 122.721 301.6 123.335 301.32C123.961 301.04 124.801 300.9 125.855 300.9H129.215V302.28H125.935C124.975 302.28 124.328 302.44 123.995 302.76C123.661 303.08 123.495 303.467 123.495 303.92C123.495 304.44 123.701 304.86 124.115 305.18C124.528 305.487 125.101 305.64 125.835 305.64C126.555 305.64 127.181 305.48 127.715 305.16C128.261 304.84 128.655 304.373 128.895 303.76L129.275 305.08C129.021 305.707 128.575 306.207 127.935 306.58C127.295 306.94 126.488 307.12 125.515 307.12ZM132.512 306.98L132.632 305.36C132.725 305.373 132.812 305.387 132.892 305.4C132.972 305.413 133.045 305.42 133.112 305.42C133.539 305.42 133.872 305.273 134.112 304.98C134.365 304.687 134.552 304.3 134.672 303.82C134.792 303.327 134.879 302.773 134.932 302.16C134.985 301.547 135.025 300.933 135.052 300.32L135.232 296.4H143.372V307H141.452V297.52L141.912 298.08H136.472L136.912 297.5L136.772 300.44C136.732 301.373 136.659 302.247 136.552 303.06C136.445 303.873 136.279 304.587 136.052 305.2C135.839 305.813 135.539 306.293 135.152 306.64C134.779 306.987 134.292 307.16 133.692 307.16C133.519 307.16 133.332 307.14 133.132 307.1C132.945 307.073 132.739 307.033 132.512 306.98ZM151.985 300C153.331 300.013 154.358 300.32 155.065 300.92C155.771 301.52 156.125 302.367 156.125 303.46C156.125 304.607 155.738 305.493 154.965 306.12C154.191 306.733 153.098 307.033 151.685 307.02L147.085 307V296.4H149.005V299.98L151.985 300ZM151.525 305.56C152.391 305.573 153.045 305.4 153.485 305.04C153.938 304.68 154.165 304.147 154.165 303.44C154.165 302.747 153.945 302.24 153.505 301.92C153.065 301.6 152.405 301.433 151.525 301.42L149.005 301.38V305.54L151.525 305.56ZM158.589 307V296.4H160.509V300.9H166.549V296.4H168.469V307H166.549V302.56H160.509V307H158.589ZM176.742 307.12C175.675 307.12 174.728 306.887 173.902 306.42C173.075 305.953 172.422 305.313 171.942 304.5C171.462 303.673 171.222 302.74 171.222 301.7C171.222 300.647 171.462 299.713 171.942 298.9C172.422 298.087 173.075 297.453 173.902 297C174.728 296.533 175.675 296.3 176.742 296.3C177.795 296.3 178.735 296.533 179.562 297C180.402 297.453 181.055 298.087 181.522 298.9C182.002 299.7 182.242 300.633 182.242 301.7C182.242 302.753 182.002 303.687 181.522 304.5C181.055 305.313 180.402 305.953 179.562 306.42C178.735 306.887 177.795 307.12 176.742 307.12ZM176.742 305.44C177.422 305.44 178.028 305.287 178.562 304.98C179.108 304.673 179.535 304.24 179.842 303.68C180.148 303.107 180.302 302.447 180.302 301.7C180.302 300.94 180.148 300.287 179.842 299.74C179.535 299.18 179.108 298.747 178.562 298.44C178.028 298.133 177.422 297.98 176.742 297.98C176.062 297.98 175.455 298.133 174.922 298.44C174.388 298.747 173.962 299.18 173.642 299.74C173.322 300.287 173.162 300.94 173.162 301.7C173.162 302.447 173.322 303.107 173.642 303.68C173.962 304.24 174.388 304.673 174.922 304.98C175.455 305.287 176.062 305.44 176.742 305.44ZM184.49 302.34V300.68H189.87V302.34H184.49ZM194.193 302.34V300.92H200.133V302.34H194.193ZM195.613 296.28C196.707 296.28 197.687 296.513 198.553 296.98C199.42 297.447 200.1 298.087 200.593 298.9C201.087 299.713 201.333 300.647 201.333 301.7C201.333 302.74 201.087 303.673 200.593 304.5C200.1 305.327 199.42 305.973 198.553 306.44C197.687 306.907 196.707 307.14 195.613 307.14C194.707 307.14 193.867 306.993 193.093 306.7C192.333 306.407 191.693 305.98 191.173 305.42L192.293 304.3C192.733 304.727 193.22 305.047 193.753 305.26C194.3 305.46 194.893 305.56 195.533 305.56C196.307 305.56 196.993 305.4 197.593 305.08C198.193 304.747 198.667 304.287 199.013 303.7C199.373 303.113 199.553 302.447 199.553 301.7C199.553 300.953 199.373 300.293 199.013 299.72C198.667 299.133 198.193 298.673 197.593 298.34C196.993 298.007 196.307 297.84 195.533 297.84C194.893 297.84 194.3 297.947 193.753 298.16C193.22 298.373 192.733 298.693 192.293 299.12L191.173 298.02C191.693 297.447 192.333 297.013 193.093 296.72C193.867 296.427 194.707 296.28 195.613 296.28ZM211.737 307L207.637 301.84L209.217 300.88L213.997 307H211.737ZM204.057 307V296.4H205.977V307H204.057ZM205.397 302.52V300.88H208.897V302.52H205.397ZM209.377 301.92L207.597 301.68L211.657 296.4H213.717L209.377 301.92ZM220.199 307.12C219.132 307.12 218.185 306.887 217.359 306.42C216.532 305.953 215.879 305.313 215.399 304.5C214.919 303.673 214.679 302.74 214.679 301.7C214.679 300.647 214.919 299.713 215.399 298.9C215.879 298.087 216.532 297.453 217.359 297C218.185 296.533 219.132 296.3 220.199 296.3C221.252 296.3 222.192 296.533 223.019 297C223.859 297.453 224.512 298.087 224.979 298.9C225.459 299.7 225.699 300.633 225.699 301.7C225.699 302.753 225.459 303.687 224.979 304.5C224.512 305.313 223.859 305.953 223.019 306.42C222.192 306.887 221.252 307.12 220.199 307.12ZM220.199 305.44C220.879 305.44 221.485 305.287 222.019 304.98C222.565 304.673 222.992 304.24 223.299 303.68C223.605 303.107 223.759 302.447 223.759 301.7C223.759 300.94 223.605 300.287 223.299 299.74C222.992 299.18 222.565 298.747 222.019 298.44C221.485 298.133 220.879 297.98 220.199 297.98C219.519 297.98 218.912 298.133 218.379 298.44C217.845 298.747 217.419 299.18 217.099 299.74C216.779 300.287 216.619 300.94 216.619 301.7C216.619 302.447 216.779 303.107 217.099 303.68C217.419 304.24 217.845 304.673 218.379 304.98C218.912 305.287 219.519 305.44 220.199 305.44ZM228.471 307V296.4H230.391V300.9H236.431V296.4H238.351V307H236.431V302.56H230.391V307H228.471ZM246.625 307.12C245.558 307.12 244.611 306.887 243.785 306.42C242.958 305.953 242.305 305.313 241.825 304.5C241.345 303.673 241.105 302.74 241.105 301.7C241.105 300.647 241.345 299.713 241.825 298.9C242.305 298.087 242.958 297.453 243.785 297C244.611 296.533 245.558 296.3 246.625 296.3C247.678 296.3 248.618 296.533 249.445 297C250.285 297.453 250.938 298.087 251.405 298.9C251.885 299.7 252.125 300.633 252.125 301.7C252.125 302.753 251.885 303.687 251.405 304.5C250.938 305.313 250.285 305.953 249.445 306.42C248.618 306.887 247.678 307.12 246.625 307.12ZM246.625 305.44C247.305 305.44 247.911 305.287 248.445 304.98C248.991 304.673 249.418 304.24 249.725 303.68C250.031 303.107 250.185 302.447 250.185 301.7C250.185 300.94 250.031 300.287 249.725 299.74C249.418 299.18 248.991 298.747 248.445 298.44C247.911 298.133 247.305 297.98 246.625 297.98C245.945 297.98 245.338 298.133 244.805 298.44C244.271 298.747 243.845 299.18 243.525 299.74C243.205 300.287 243.045 300.94 243.045 301.7C243.045 302.447 243.205 303.107 243.525 303.68C243.845 304.24 244.271 304.673 244.805 304.98C245.338 305.287 245.945 305.44 246.625 305.44ZM254.897 307V296.4H256.877L261.437 304.24H260.637L265.317 296.4H267.117V307H265.377V298.56L265.697 298.74L261.417 305.8H260.577L256.277 298.6L256.657 298.52V307H254.897ZM270.854 307V296.4H272.774V304.12L279.274 296.4H281.014V307H279.094V299.28L272.614 307H270.854ZM291.421 302.66C290.861 302.927 290.281 303.14 289.681 303.3C289.094 303.447 288.488 303.52 287.861 303.52C286.581 303.52 285.568 303.22 284.821 302.62C284.088 302.02 283.721 301.093 283.721 299.84V296.4H285.641V299.72C285.641 300.48 285.874 301.04 286.341 301.4C286.821 301.76 287.461 301.94 288.261 301.94C288.768 301.94 289.288 301.873 289.821 301.74C290.368 301.607 290.901 301.42 291.421 301.18V302.66ZM291.281 307V296.4H293.201V307H291.281ZM301.648 307.12C300.515 307.12 299.515 306.887 298.648 306.42C297.795 305.953 297.128 305.313 296.648 304.5C296.182 303.687 295.948 302.753 295.948 301.7C295.948 300.647 296.175 299.713 296.628 298.9C297.095 298.087 297.728 297.453 298.528 297C299.342 296.533 300.255 296.3 301.268 296.3C302.295 296.3 303.202 296.527 303.988 296.98C304.775 297.433 305.388 298.073 305.828 298.9C306.282 299.713 306.508 300.667 306.508 301.76C306.508 301.84 306.502 301.933 306.488 302.04C306.488 302.147 306.482 302.247 306.468 302.34H297.448V300.96H305.468L304.688 301.44C304.702 300.76 304.562 300.153 304.268 299.62C303.975 299.087 303.568 298.673 303.048 298.38C302.542 298.073 301.948 297.92 301.268 297.92C300.602 297.92 300.008 298.073 299.488 298.38C298.968 298.673 298.562 299.093 298.268 299.64C297.975 300.173 297.828 300.787 297.828 301.48V301.8C297.828 302.507 297.988 303.14 298.308 303.7C298.642 304.247 299.102 304.673 299.688 304.98C300.275 305.287 300.948 305.44 301.708 305.44C302.335 305.44 302.902 305.333 303.408 305.12C303.928 304.907 304.382 304.587 304.768 304.16L305.828 305.4C305.348 305.96 304.748 306.387 304.028 306.68C303.322 306.973 302.528 307.12 301.648 307.12ZM314.107 307.12C313.027 307.12 312.06 306.887 311.207 306.42C310.367 305.953 309.707 305.313 309.227 304.5C308.747 303.687 308.507 302.753 308.507 301.7C308.507 300.647 308.747 299.713 309.227 298.9C309.707 298.087 310.367 297.453 311.207 297C312.06 296.533 313.027 296.3 314.107 296.3C315.067 296.3 315.92 296.493 316.667 296.88C317.427 297.253 318.014 297.813 318.427 298.56L316.967 299.5C316.62 298.98 316.194 298.6 315.687 298.36C315.194 298.107 314.66 297.98 314.087 297.98C313.394 297.98 312.774 298.133 312.227 298.44C311.68 298.747 311.247 299.18 310.927 299.74C310.607 300.287 310.447 300.94 310.447 301.7C310.447 302.46 310.607 303.12 310.927 303.68C311.247 304.24 311.68 304.673 312.227 304.98C312.774 305.287 313.394 305.44 314.087 305.44C314.66 305.44 315.194 305.32 315.687 305.08C316.194 304.827 316.62 304.44 316.967 303.92L318.427 304.84C318.014 305.573 317.427 306.14 316.667 306.54C315.92 306.927 315.067 307.12 314.107 307.12ZM328.593 307L324.493 301.84L326.073 300.88L330.853 307H328.593ZM320.913 307V296.4H322.833V307H320.913ZM322.253 302.52V300.88H325.753V302.52H322.253ZM326.233 301.92L324.453 301.68L328.513 296.4H330.573L326.233 301.92ZM332.866 307V296.4H334.786V304.12L341.286 296.4H343.026V307H341.106V299.28L334.626 307H332.866ZM346.753 307V296.4H348.673V304.12L355.173 296.4H356.913V307H354.993V299.28L348.513 307H346.753ZM351.713 295.02C350.739 295.02 349.973 294.787 349.413 294.32C348.866 293.84 348.586 293.153 348.573 292.26H349.873C349.886 292.767 350.053 293.167 350.373 293.46C350.706 293.753 351.146 293.9 351.693 293.9C352.239 293.9 352.679 293.753 353.013 293.46C353.346 293.167 353.519 292.767 353.533 292.26H354.873C354.859 293.153 354.573 293.84 354.013 294.32C353.453 294.787 352.686 295.02 351.713 295.02ZM167.514 331V320.4H169.434V328.12L175.934 320.4H177.674V331H175.754V323.28L169.274 331H167.514ZM181.401 331V320.4H183.321V324.9H189.361V320.4H191.281V331H189.361V326.56H183.321V331H181.401ZM199.634 331.12C198.554 331.12 197.588 330.887 196.734 330.42C195.894 329.953 195.234 329.313 194.754 328.5C194.274 327.687 194.034 326.753 194.034 325.7C194.034 324.647 194.274 323.713 194.754 322.9C195.234 322.087 195.894 321.453 196.734 321C197.588 320.533 198.554 320.3 199.634 320.3C200.594 320.3 201.448 320.493 202.194 320.88C202.954 321.253 203.541 321.813 203.954 322.56L202.494 323.5C202.148 322.98 201.721 322.6 201.214 322.36C200.721 322.107 200.188 321.98 199.614 321.98C198.921 321.98 198.301 322.133 197.754 322.44C197.208 322.747 196.774 323.18 196.454 323.74C196.134 324.287 195.974 324.94 195.974 325.7C195.974 326.46 196.134 327.12 196.454 327.68C196.774 328.24 197.208 328.673 197.754 328.98C198.301 329.287 198.921 329.44 199.614 329.44C200.188 329.44 200.721 329.32 201.214 329.08C201.721 328.827 202.148 328.44 202.494 327.92L203.954 328.84C203.541 329.573 202.954 330.14 202.194 330.54C201.448 330.927 200.594 331.12 199.634 331.12ZM208.403 331V321.58L208.883 322.08H204.523V320.4H214.203V322.08H209.863L210.323 321.58V331H208.403ZM216.167 331V320.4H218.087V328.12L224.587 320.4H226.327V331H224.407V323.28L217.927 331H216.167ZM232.153 331V321.58L232.633 322.08H228.273V320.4H237.953V322.08H233.613L234.073 321.58V331H232.153ZM240.457 335C239.95 335 239.457 334.913 238.977 334.74C238.497 334.58 238.083 334.34 237.737 334.02L238.557 332.58C238.823 332.833 239.117 333.027 239.437 333.16C239.757 333.293 240.097 333.36 240.457 333.36C240.923 333.36 241.31 333.24 241.617 333C241.923 332.76 242.21 332.333 242.477 331.72L243.137 330.26L243.337 330.02L247.497 320.4H249.377L244.237 332.06C243.93 332.807 243.583 333.393 243.197 333.82C242.823 334.247 242.41 334.547 241.957 334.72C241.503 334.907 241.003 335 240.457 335ZM242.977 331.34L238.137 320.4H240.137L244.257 329.84L242.977 331.34ZM253.442 331V321.58L253.922 322.08H249.562V320.4H259.242V322.08H254.902L255.362 321.58V331H253.442Z" fill="black" fill-opacity="0.65"/>
<path d="M210.706 147.681L185.854 130.706H235.558L210.706 147.681Z" fill="#E3000F"/>
<path d="M210.302 148.085L185.445 164.537V131.634L210.302 148.085Z" fill="#E3000F" fill-opacity="0.52"/>
<path d="M210.706 148.49L235.558 165.465H185.854L210.706 148.49Z" fill="#CD0512"/>
<path d="M211.11 148.085L235.967 131.634V164.537L211.11 148.085Z" fill="#CD0512"/>
<path d="M297.603 131.514V163.15V165.465H236.169L297.603 131.514Z" fill="#CD0512"/>
<path d="M236.169 164.657V133.021V130.706H297.603L236.169 164.657Z" fill="#E3000F" fill-opacity="0.52"/>
<path d="M236.169 166.273H297.603L236.169 196.586V167.082V166.273Z" fill="#E3000F" fill-opacity="0.52"/>
<path d="M297.603 166.677V218.008V219.624L236.169 196.991L297.603 166.677Z" fill="#E3000F"/>
<path d="M236.169 197.395L297.603 220.028L256.378 255.192L230.915 204.67L236.169 197.395Z" fill="#CD0512"/>
<path d="M186.455 204.67L230.51 205.074L255.973 255.596L186.455 204.67Z" fill="#E3000F"/>
<path d="M186.051 205.074L255.569 256H168.268L186.051 205.074Z" fill="#CD0512"/>
<path d="M123 181.632H179.584V183.249L123 222.049V181.632Z" fill="#E3000F" fill-opacity="0.52"/>
<path d="M123 222.454L179.584 183.653L185.647 204.67L167.459 256L123 222.454Z" fill="#E3000F"/>
<path d="M236.169 101.605L297.603 129.898H236.169V101.605Z" fill="#E3000F"/>
<path d="M297.199 78.1632L297.603 129.089L236.169 100.797L297.199 78.1632Z" fill="#CD0512"/>
<path d="M259.611 43L296.795 77.3548L236.169 100.393V98.3719L259.611 43Z" fill="#E3000F"/>
<path d="M208.685 76.9507L229.298 93.1177H188.329L208.685 76.9507Z" fill="#CD0512"/>
<path d="M208.685 76.1423L248.533 43H168.028L208.685 76.1423Z" fill="#CD0512"/>
<path d="M209.089 76.5465L249.507 43H258.803L236.169 97.5636L209.089 76.5465Z" fill="#E3000F" fill-opacity="0.52"/>
<path d="M167.459 43L208.281 76.5465L187.264 93.5218L167.459 43Z" fill="#E3000F"/>
<path d="M184.435 95.5427L179.584 116.964H124.617L184.435 95.5427Z" fill="#CD0512"/>
<path d="M123 78.5674L184.435 95.1385L123 116.964V78.5674Z" fill="#E3000F"/>
<path d="M166.651 43L186.455 93.1176L184.03 94.7343L123.404 78.1632L166.651 43Z" fill="#E3000F" fill-opacity="0.52"/>
</svg>
